<?xml version="1.0" encoding="UTF-8" standalone="yes"?><svg fill="none" xmlns="http://www.w3.org/2000/svg" xmlns:xlink="http://www.w3.org/1999/xlink" version="1.2" baseProfile="tiny" x="0" y="0" width="64" height="64" viewBox="0 0 64 64"><defs><linearGradient id="wps{8466b954-176a-41ce-9a50-a229bdb40f4c}_solid@Accent1_1.00@Accent1_1.00" x1="0" y1="0.5" x2="1" y2="0.5" spreadMethod="pad" gradientUnits="userSpaceOnUse"><stop offset="0" stop-color="#ffffff" stop-opacity="1"/><stop offset="1" stop-color="#ffffff" stop-opacity="1"/></linearGradient></defs><defs/><path fill="url(#wps{8466b954-176a-41ce-9a50-a229bdb40f4c}_solid@Accent1_1.00@Accent1_1.00)" fill-opacity="1" d="M 29.8067 19.7246 C 31.0204 18.5385 32.962 18.5388 34.1759 19.7246 L 34.295 19.8467 L 34.7716 20.377 C 38.7693 24.9334 41.1515 30.4119 41.922 36.0645 C 46.6351 32.5007 52.4364 30.2929 58.7393 30.0273 L 58.9102 30.0244 C 60.6641 30.0444 62.0718 31.5106 61.9972 33.2852 C 61.3225 49.2598 48.1495 62 32.0001 62 C 15.8506 62 2.67767 49.2598 2.00302 33.2852 C 1.92597 31.4533 3.42854 29.9503 5.26083 30.0273 C 11.5573 30.2926 17.3529 32.4965 22.0636 36.0537 C 22.866 30.1839 25.4061 24.5023 29.6886 19.8467 L 29.8067 19.7246 M 6.05966 34.083 C 7.06648 46.7797 17.2043 56.9107 29.9161 57.917 C 29.5415 53.1941 27.9046 48.8278 25.3409 45.1523 C 25.1721 44.9104 24.9991 44.6715 24.8224 44.4355 C 24.6776 44.2423 24.53 44.0513 24.38 43.8623 C 24.154 43.5775 23.9222 43.2974 23.6847 43.0225 C 23.5539 42.8711 23.4213 42.7215 23.2872 42.5732 C 23.0927 42.3583 22.895 42.1459 22.6935 41.9375 C 22.692 41.936 22.691 41.9341 22.6895 41.9326 C 22.5843 41.8238 22.4784 41.7154 22.3712 41.6084 C 18.1198 37.3641 12.4107 34.5853 6.05966 34.083 M 57.9395 34.083 C 51.5814 34.5861 45.8671 37.3715 41.6143 41.624 C 37.3675 45.8708 34.5863 51.5724 34.0831 57.917 C 46.7953 56.9111 56.9327 46.7799 57.9395 34.083 M 31.9913 23.2803 C 28.024 27.9256 25.9582 33.6343 25.795 39.3926 C 26.5701 40.2118 27.2982 41.0757 27.9776 41.9785 C 28.0424 42.0645 28.1071 42.1506 28.171 42.2373 C 28.2361 42.3257 28.3002 42.4148 28.3643 42.5039 C 28.4474 42.6193 28.53 42.735 28.6114 42.8516 C 28.6909 42.9654 28.7689 43.0803 28.8468 43.1953 C 28.9173 43.2994 28.9874 43.4038 29.0567 43.5088 C 29.0996 43.5738 29.1423 43.6388 29.1847 43.7041 C 29.2927 43.8706 29.3992 44.0382 29.504 44.207 C 29.5342 44.2557 29.5639 44.3047 29.5938 44.3535 C 29.698 44.5234 29.8006 44.6942 29.9015 44.8662 C 29.9308 44.9163 29.9603 44.9663 29.9893 45.0166 C 30.7626 46.3539 31.4367 47.7559 31.9991 49.2139 C 32.185 48.732 32.3842 48.2565 32.5938 47.7871 C 32.6197 47.7292 32.6467 47.6719 32.6729 47.6143 C 32.7552 47.4331 32.8381 47.2524 32.9239 47.0732 C 32.9441 47.0311 32.9651 46.9893 32.9854 46.9473 C 33.075 46.7624 33.1657 46.5782 33.2589 46.3955 C 33.2932 46.3282 33.3285 46.2614 33.3634 46.1943 C 33.4466 46.0343 33.5313 45.8752 33.6173 45.7168 C 33.6527 45.6515 33.6888 45.5865 33.7247 45.5215 C 33.8149 45.3582 33.906 45.1956 33.9991 45.0342 C 34.0342 44.9734 34.0701 44.9131 34.1056 44.8525 C 34.1966 44.6973 34.2891 44.5431 34.3829 44.3896 C 34.4209 44.3274 34.4587 44.2651 34.4972 44.2031 C 34.592 44.0504 34.6887 43.8989 34.7862 43.748 C 34.8331 43.6755 34.8793 43.6024 34.9268 43.5303 C 35.0154 43.3959 35.1058 43.2628 35.1964 43.1299 C 35.248 43.0542 35.2994 42.9785 35.3517 42.9033 C 35.4474 42.7656 35.5447 42.6291 35.6427 42.4932 C 35.6974 42.4171 35.7522 42.3411 35.8077 42.2656 C 35.906 42.1318 36.0061 41.9993 36.1065 41.8672 C 36.1562 41.8019 36.2048 41.7358 36.255 41.6709 C 36.3521 41.5453 36.4508 41.4209 36.5499 41.2969 C 36.609 41.2229 36.6678 41.1486 36.7276 41.0752 C 37.0415 40.69 37.3642 40.3123 37.6964 39.9434 L 37.714 39.9238 C 37.7868 39.8431 37.862 39.7645 37.9356 39.6846 C 38.0196 39.5934 38.1025 39.5012 38.1876 39.4111 C 38.0283 33.6463 35.963 27.9306 31.9913 23.2803 M 32.0001 2 C 44.6383 2.00004 55.4495 9.80192 59.879 20.8428 C 60.2902 21.8679 59.7927 23.033 58.7677 23.4443 C 57.7425 23.8556 56.5774 23.3572 56.1661 22.332 C 52.3248 12.7576 42.9505 6.00004 32.0001 6 C 21.0497 6.00003 11.6754 12.7576 7.83408 22.332 C 7.42281 23.3572 6.25764 23.8556 5.23251 23.4443 C 4.20751 23.033 3.70994 21.8679 4.12119 20.8428 C 8.55071 9.8019 19.3618 2.00003 32.0001 2"/></svg>
