<?xml version="1.0" encoding="UTF-8" standalone="yes"?><svg xmlns="http://www.w3.org/2000/svg" xmlns:xlink="http://www.w3.org/1999/xlink" version="1.2" baseProfile="tiny" x="0" y="0" width="27" height="21" viewBox="0 0 27 21"><defs/><path fill="#8d624f" d="M 12.6094 2.48438 L 7.125 8.57813 C 6.9375 8.8125 6.9375 9.1875 7.17188 9.42188 C 8.57813 10.8281 10.9219 10.8281 12.3281 9.42188 L 13.8281 7.92188 C 14.0156 7.73438 14.2969 7.59375 14.5313 7.59375 C 14.8594 7.54688 15.1875 7.6875 15.4219 7.92188 L 23.7188 16.125 L 27 13.5 L 27 0 L 21.75 3 L 20.625 2.25 C 19.875 1.78125 19.0313 1.5 18.1406 1.5 L 14.8594 1.5 C 14.7656 1.5 14.7188 1.5 14.6719 1.5 C 13.875 1.54688 13.125 1.92188 12.6094 2.48438 M 5.48438 7.07813 L 10.4531 1.5 L 8.625 1.5 C 7.40625 1.5 6.28125 1.96875 5.4375 2.8125 L 5.25 3 L 0 0 L 0 13.5 L 7.3125 19.5938 C 8.39063 20.5313 9.75 21 11.1563 21 L 11.9063 21 L 11.5781 20.6719 C 11.1563 20.25 11.1563 19.5 11.5781 19.0781 C 12 18.6563 12.75 18.6563 13.1719 19.0781 L 15.0938 21 L 15.5156 21 C 16.4063 21 17.2969 20.8125 18.0938 20.4375 L 16.8281 19.1719 C 16.4063 18.75 16.4063 18 16.8281 17.5781 C 17.25 17.1563 18 17.1563 18.4219 17.5781 L 19.9219 19.0781 L 20.7188 18.2813 C 21.1406 17.8594 21.2813 17.25 21.0938 16.7344 L 14.625 10.3125 L 13.9219 11.0156 C 11.625 13.3125 7.875 13.3125 5.57813 11.0156 C 4.5 9.9375 4.45313 8.20313 5.48438 7.07813"/></svg>
