<?xml version="1.0" encoding="UTF-8" standalone="yes"?><svg xmlns="http://www.w3.org/2000/svg" xmlns:xlink="http://www.w3.org/1999/xlink" version="1.2" baseProfile="tiny" x="0" y="0" width="17" height="21" viewBox="0 0 17.5181 21.279"><defs/><path fill="#8d624f" d="M 13.2571 0.248858 C 13.7258 0.592608 13.8821 1.18636 13.6789 1.73323 L 10.6008 9.38948 L 16.2571 9.38948 C 16.8039 9.38948 17.2727 9.70198 17.4289 10.202 C 17.6321 10.7176 17.4758 11.2645 17.0852 11.6082 L 5.83519 20.9989 C 5.36644 21.3426 4.74144 21.3895 4.27269 21.0301 C 3.80394 20.6864 3.64769 20.0926 3.83519 19.5457 L 6.92894 11.8895 L 1.25706 11.8895 C 0.757063 11.8895 0.288313 11.577 0.0851879 11.0614 C -0.117937 10.5614 0.0539379 10.0145 0.475813 9.65511 L 11.7258 0.280108 C 12.1633 -0.0636417 12.7883 -0.110517 13.2571 0.248858 Z"/></svg>
