<?xml version="1.0" encoding="UTF-8" standalone="yes"?><svg xmlns="http://www.w3.org/2000/svg" xmlns:xlink="http://www.w3.org/1999/xlink" version="1.2" baseProfile="tiny" x="0" y="0" width="42" height="30" viewBox="0 0 42 30"><defs/><path fill="#8d624f" d="M 0 11.25 C 0 5.0625 5.0625 0 11.25 0 L 12 0 C 13.6875 0 15 1.3125 15 3 C 15 4.6875 13.6875 6 12 6 L 11.25 6 C 8.34375 6 6 8.34375 6 11.25 L 6 12 L 12 12 C 15.2813 12 18 14.7188 18 18 L 18 24 C 18 27.2813 15.2813 30 12 30 L 6 30 C 2.71875 30 0 27.2813 0 24 L 0 11.25 M 24 11.25 C 24 5.0625 29.0625 0 35.25 0 L 36 0 C 37.6875 0 39 1.3125 39 3 C 39 4.6875 37.6875 6 36 6 L 35.25 6 C 32.3438 6 30 8.34375 30 11.25 L 30 12 L 36 12 C 39.2813 12 42 14.7188 42 18 L 42 24 C 42 27.2813 39.2813 30 36 30 L 30 30 C 26.7188 30 24 27.2813 24 24 L 24 11.25"/></svg>
