<?xml version="1.0" encoding="UTF-8" standalone="yes"?><svg xmlns="http://www.w3.org/2000/svg" xmlns:xlink="http://www.w3.org/1999/xlink" version="1.2" baseProfile="tiny" x="0" y="0" width="29" height="24" viewBox="0 0 29.955 24"><defs/><path fill="#8d624f" d="M 18.0009 1.5 L 24.0009 1.5 C 24.8447 1.5 25.5009 2.15625 25.5009 3 C 25.5009 3.84375 24.8447 4.5 24.0009 4.5 L 18.6572 4.5 C 18.4228 5.71875 17.6259 6.70313 16.5009 7.17188 L 16.5009 21 L 24.0009 21 C 24.8447 21 25.5009 21.6563 25.5009 22.5 C 25.5009 23.3438 24.8447 24 24.0009 24 L 6.00095 24 C 5.1572 24 4.50095 23.3438 4.50095 22.5 C 4.50095 21.6563 5.1572 21 6.00095 21 L 13.5009 21 L 13.5009 7.17188 C 12.4228 6.70313 11.5791 5.71875 11.3447 4.5 L 6.00095 4.5 C 5.1572 4.5 4.50095 3.84375 4.50095 3 C 4.50095 2.15625 5.1572 1.5 6.00095 1.5 L 12.0009 1.5 C 12.7041 0.609375 13.7822 0 15.0009 0 C 16.2197 0 17.2978 0.609375 18.0009 1.5 M 20.6259 15 L 27.3759 15 L 24.0009 9.1875 L 20.6259 15 M 24.0009 19.5 C 21.0478 19.5 18.6103 17.9063 18.0947 15.7969 C 17.9541 15.2813 18.1416 14.7656 18.4228 14.2969 L 22.8759 6.65625 C 23.1103 6.23438 23.5322 6 24.0009 6 C 24.4697 6 24.8916 6.23438 25.1259 6.65625 L 29.5791 14.2969 C 29.8603 14.7656 30.0478 15.2813 29.9072 15.7969 C 29.3916 17.9063 26.9541 19.5 24.0009 19.5 M 5.95407 9.1875 L 2.5322 15 L 9.32907 15 L 5.95407 9.1875 M 0.0478214 15.7969 C -0.0928036 15.2813 0.0946964 14.7656 0.375946 14.2969 L 4.82907 6.65625 C 5.06345 6.23438 5.48532 6 5.95407 6 C 6.42282 6 6.8447 6.23438 7.07907 6.65625 L 11.5322 14.2969 C 11.8134 14.7656 12.0009 15.2813 11.8603 15.7969 C 11.3447 17.9063 8.9072 19.5 5.95407 19.5 C 3.00095 19.5 0.563446 17.9063 0.0478214 15.7969"/></svg>
