<?xml version="1.0" encoding="UTF-8" standalone="yes"?><svg xmlns="http://www.w3.org/2000/svg" xmlns:xlink="http://www.w3.org/1999/xlink" version="1.2" baseProfile="tiny" x="0" y="0" width="22" height="17" viewBox="0 0 22.5 17.5"><defs/><path fill="#8d624f" d="M 1.875 6.40625 L 10.0469 9.76563 C 10.4375 9.92188 10.8281 10 11.25 10 C 11.6875 10 12.0781 9.92188 12.4688 9.76563 L 21.9219 5.85938 C 22.2656 5.70313 22.5 5.39063 22.5 5 C 22.5 4.60938 22.2656 4.29688 21.9219 4.14063 L 12.4688 0.234375 C 12.0781 0.078125 11.6875 0 11.25 0 C 10.8281 0 10.4375 0.078125 10.0469 0.234375 L 0.59375 4.14063 C 0.234375 4.29688 0 4.60938 0 5 L 0 16.5625 C 0 17.0781 0.4375 17.5 0.9375 17.5 C 1.45313 17.5 1.875 17.0781 1.875 16.5625 L 1.875 6.40625 M 3.75 9.21875 L 3.75 13.75 C 3.75 15.8125 7.10938 17.5 11.25 17.5 C 15.3906 17.5 18.75 15.8125 18.75 13.75 L 18.75 9.17188 L 13.1719 11.4844 C 12.5781 11.75 11.9219 11.875 11.25 11.875 C 10.5938 11.875 9.96875 11.75 9.34375 11.4844 L 3.75 9.17188 L 3.75 9.21875"/></svg>
