<?xml version="1.0" encoding="UTF-8" standalone="yes"?><svg xmlns="http://www.w3.org/2000/svg" xmlns:xlink="http://www.w3.org/1999/xlink" version="1.2" baseProfile="tiny" x="0" y="0" width="20" height="15" viewBox="0 0 20 15"><defs/><path fill="#8d624f" d="M 2.5 0 C 1.14063 0 0 1.125 0 2.5 L 0 12.5 C 0 13.8594 1.14063 15 2.5 15 L 17.5 15 C 18.875 15 20 13.8594 20 12.5 L 20 2.5 C 20 1.125 18.875 0 17.5 0 L 2.5 0 M 10 3.75 C 12.0781 3.75 13.75 5.42188 13.75 7.5 C 13.75 9.5625 12.0781 11.25 10 11.25 C 7.9375 11.25 6.25 9.5625 6.25 7.5 C 6.25 5.42188 7.9375 3.75 10 3.75 M 17.5 4.6875 C 17.5 4.84375 17.3438 5 17.1875 5 C 16.0625 4.84375 15.1563 3.9375 15.0469 2.8125 C 15 2.65625 15.1563 2.5 15.3125 2.5 L 17.1875 2.5 C 17.3438 2.5 17.5 2.65625 17.5 2.8125 L 17.5 4.6875 M 2.5 10.3125 C 2.5 10.1563 2.65625 10 2.8125 10.0313 C 3.95313 10.1563 4.84375 11.0469 5 12.1875 C 5 12.3438 4.84375 12.5 4.6875 12.5 L 2.8125 12.5 C 2.65625 12.5 2.5 12.3438 2.5 12.1875 L 2.5 10.3125 M 2.8125 5 C 2.65625 5 2.5 4.84375 2.5 4.6875 L 2.5 2.8125 C 2.5 2.65625 2.65625 2.5 2.8125 2.5 L 4.6875 2.5 C 4.84375 2.5 5 2.65625 5 2.8125 C 4.84375 3.9375 3.95313 4.84375 2.8125 5 M 17.1875 10.0313 C 17.3438 10 17.5 10.1563 17.5 10.3125 L 17.5 12.1875 C 17.5 12.3438 17.3438 12.5 17.1875 12.5 L 15.3125 12.5 C 15.1563 12.5 15 12.3438 15.0469 12.1875 C 15.1563 11.0469 16.0625 10.1563 17.1875 10.0313"/></svg>
