<?xml version="1.0" encoding="UTF-8" standalone="yes"?><svg xmlns="http://www.w3.org/2000/svg" xmlns:xlink="http://www.w3.org/1999/xlink" version="1.2" baseProfile="tiny" x="0" y="0" width="16" height="19" viewBox="0 0 16.25 19.6875"><defs/><path fill="#8d624f" d="M 8.125 9.375 C 5.54688 9.375 3.4375 7.26563 3.4375 4.6875 C 3.4375 2.10938 5.54688 0 8.125 0 C 10.7031 0 12.8125 2.10938 12.8125 4.6875 C 12.8125 7.26563 10.7031 9.375 8.125 9.375 M 6.95313 11.5625 L 9.34375 11.5625 C 9.6875 11.5625 10 11.875 10 12.2656 C 10 12.4219 9.96875 12.5781 9.84375 12.6875 L 8.75 13.9375 L 9.96875 18.4375 L 10 18.4375 L 11.375 13.0469 C 11.4531 12.6875 11.7969 12.5 12.1094 12.6094 C 14.5313 13.5156 16.25 15.8594 16.25 18.6406 C 16.25 19.2188 15.7813 19.6875 15.2031 19.6875 L 1.0625 19.6875 C 0.46875 19.6875 0 19.2188 0 18.6406 C 0 15.8594 1.71875 13.5156 4.14063 12.6094 C 4.45313 12.5 4.8125 12.6875 4.89063 13.0469 L 6.25 18.4375 L 6.29688 18.4375 L 7.5 13.9375 L 6.40625 12.6875 C 6.32813 12.5781 6.25 12.4219 6.25 12.2656 C 6.25 11.875 6.5625 11.5625 6.95313 11.5625"/></svg>
