<?xml version="1.0" encoding="UTF-8" standalone="yes"?><svg xmlns="http://www.w3.org/2000/svg" xmlns:xlink="http://www.w3.org/1999/xlink" version="1.2" baseProfile="tiny" x="0" y="0" width="20" height="20" viewBox="0 0 20 20"><defs/><path fill="#8d624f" d="M 10 0 C 15.5156 0 20 4.48438 20 10 C 20 15.5 15.5156 20 10 20 C 4.5 20 0 15.5 0 10 C 0 4.48438 4.5 0 10 0 M 9.0625 4.6875 L 9.0625 10 C 9.0625 10.3125 9.21875 10.625 9.5 10.7813 L 13.25 13.2813 C 13.6719 13.5469 14.2656 13.4375 14.5313 13 C 14.8125 12.5781 14.6875 11.9844 14.2656 11.7188 L 10.9375 9.48438 L 10.9375 4.6875 C 10.9375 4.17188 10.5156 3.75 10 3.75 C 9.5 3.75 9.0625 4.17188 9.0625 4.6875"/></svg>
