<?xml version="1.0" encoding="UTF-8" standalone="yes"?><svg xmlns="http://www.w3.org/2000/svg" xmlns:xlink="http://www.w3.org/1999/xlink" version="1.2" baseProfile="tiny" x="0" y="0" width="20" height="18" viewBox="0 0 20 18.957"><defs/><path fill="#8d624f" d="M 10 4.25 L 10 16.375 L 10.0469 16.3281 C 12.1563 15.4688 14.4531 15 16.7656 15 L 17.5 15 L 17.5 2.5 L 16.7656 2.5 C 15.125 2.5 13.4844 2.8125 11.9531 3.46875 C 11.2969 3.75 10.625 4.01563 10 4.25 M 9.03125 1.17188 L 10 1.5625 L 10.9844 1.17188 C 12.8125 0.390625 14.7656 0 16.7656 0 L 18.125 0 C 19.1875 0 20 0.859375 20 1.875 L 20 15.625 C 20 16.6875 19.1875 17.5 18.125 17.5 L 16.7656 17.5 C 14.7656 17.5 12.8125 17.8906 10.9844 18.6719 L 10.4688 18.875 C 10.1563 18.9844 9.84375 18.9844 9.53125 18.875 L 9.03125 18.6719 C 7.1875 17.8906 5.23438 17.5 3.25 17.5 L 1.875 17.5 C 0.859375 17.5 0 16.6875 0 15.625 L 0 1.875 C 0 0.859375 0.859375 0 1.875 0 L 3.25 0 C 5.23438 0 7.1875 0.390625 9.03125 1.17188"/></svg>
