<?xml version="1.0" encoding="UTF-8" standalone="yes"?><svg xmlns="http://www.w3.org/2000/svg" xmlns:xlink="http://www.w3.org/1999/xlink" version="1.2" baseProfile="tiny" x="0" y="0" width="24" height="20" viewBox="0 0 24 20.7809"><defs/><path fill="#8d624f" d="M 0 18.0779 L 0 3.54668 C 0 2.42168 1.125 1.71856 2.15625 2.04668 C 6.28125 3.26543 9.1875 2.28106 12.0938 1.29668 C 15.1406 0.312308 18.1875 -0.718942 22.5938 0.687308 C 23.4375 0.968558 24 1.81231 24 2.70293 L 24 17.2811 C 24 18.3592 22.875 19.0623 21.8438 18.7811 C 17.7188 17.5154 14.8125 18.4998 11.9063 19.4842 C 8.85938 20.4686 5.8125 21.4998 1.40625 20.0936 C 0.5625 19.8123 0 18.9686 0 18.0779 M 15.75 10.3904 C 15.75 7.90606 14.0625 5.89043 12 5.89043 C 9.9375 5.89043 8.25 7.90606 8.25 10.3904 C 8.25 12.8748 9.9375 14.8904 12 14.8904 C 14.0625 14.8904 15.75 12.8748 15.75 10.3904 M 5.625 17.7967 C 5.8125 17.7967 6 17.6092 5.95313 17.4217 C 5.76563 16.1092 4.6875 15.0779 3.375 14.9373 C 3.1875 14.8904 3 15.0779 3 15.2654 L 3 17.1404 C 3 17.3279 3.09375 17.4686 3.28125 17.5154 C 4.125 17.7029 4.875 17.7967 5.625 17.7967 M 20.5781 15.4061 C 20.8125 15.4061 21 15.2654 21 15.0311 L 21 13.0154 C 21 12.8279 20.8125 12.6404 20.625 12.6404 C 19.4531 12.8279 18.4688 13.6248 18.1406 14.7498 C 18.0469 14.9842 18.2344 15.1717 18.4688 15.1717 C 19.125 15.2186 19.8281 15.2654 20.5313 15.4061 L 20.5781 15.4061 M 21 5.51543 L 21 3.64043 C 21 3.49981 20.9063 3.31231 20.7188 3.26543 C 19.875 3.07793 19.125 2.98418 18.375 2.98418 C 18.1875 2.98418 18 3.17168 18.0469 3.35918 C 18.2344 4.67168 19.3125 5.70293 20.625 5.84356 C 20.8125 5.89043 21 5.70293 21 5.51543 M 5.85938 6.03106 C 5.95313 5.79668 5.76563 5.60918 5.53125 5.60918 C 4.875 5.56231 4.17188 5.51543 3.46875 5.37481 C 3.23438 5.37481 3 5.51543 3 5.74981 L 3 7.76543 C 3 7.95293 3.1875 8.14043 3.375 8.14043 C 4.54688 7.95293 5.53125 7.15606 5.85938 6.03106"/></svg>
