<?xml version="1.0" encoding="UTF-8" standalone="yes"?><svg xmlns="http://www.w3.org/2000/svg" xmlns:xlink="http://www.w3.org/1999/xlink" version="1.2" baseProfile="tiny" x="0" y="0" width="20" height="20" viewBox="0 0 20 20"><defs/><path fill="#8d624f" d="M 10 20 C 15.5156 20 20 15.5 20 10 C 20 4.48438 15.5156 0 10 0 C 4.5 0 0 4.48438 0 10 C 0 15.5 4.5 20 10 20 M 8.75 6.25 C 8.75 5.54688 9.29688 5 10 5 C 10.7031 5 11.25 5.54688 11.25 6.25 C 11.25 6.95313 10.7031 7.5 10 7.5 C 9.29688 7.5 8.75 6.95313 8.75 6.25 M 8.4375 8.75 L 10.3125 8.75 C 10.8281 8.75 11.25 9.17188 11.25 9.6875 L 11.25 13.125 L 11.5625 13.125 C 12.0781 13.125 12.5 13.5469 12.5 14.0625 C 12.5 14.5625 12.0781 15 11.5625 15 L 8.4375 15 C 7.9375 15 7.5 14.5625 7.5 14.0625 C 7.5 13.5469 7.9375 13.125 8.4375 13.125 L 9.375 13.125 L 9.375 10.625 L 8.4375 10.625 C 7.9375 10.625 7.5 10.1875 7.5 9.6875 C 7.5 9.17188 7.9375 8.75 8.4375 8.75"/></svg>
