<?xml version="1.0" encoding="UTF-8" standalone="yes"?><svg xmlns="http://www.w3.org/2000/svg" xmlns:xlink="http://www.w3.org/1999/xlink" version="1.2" baseProfile="tiny" x="0" y="0" width="23" height="25" viewBox="0 0 23.7344 25.168"><defs/><path fill="#8d624f" d="M 11.875 0 C 12.1094 0 12.3125 0.046875 12.5156 0.140625 L 21.8594 4.09375 C 22.9531 4.54688 23.7344 5.64063 23.7344 6.92188 C 23.7344 11.8125 21.7188 20.8281 13.2031 24.875 C 12.3594 25.2656 11.375 25.2656 10.5781 24.875 C 2.01563 20.8281 0.046875 11.8125 0 6.92188 C 0 5.64063 0.78125 4.54688 1.875 4.09375 L 11.2188 0.140625 C 11.4219 0.046875 11.625 0 11.875 0 M 11.875 3.3125 L 11.875 22.0156 C 18.6875 18.6875 20.5313 11.375 20.5781 7.01563 L 11.875 3.3125"/></svg>
