<?xml version="1.0" encoding="UTF-8" standalone="yes"?><svg xmlns="http://www.w3.org/2000/svg" xmlns:xlink="http://www.w3.org/1999/xlink" version="1.2" baseProfile="tiny" x="0" y="0" width="17" height="12" viewBox="0 0 17.3242 12.9883"><defs/><path fill="#d59134" d="M 17.0313 7.27344 C 17.4219 6.83594 17.4219 6.14844 17.0313 5.71094 L 11.6094 0.304688 C 11.1719 -0.101563 10.4844 -0.101563 10.0469 0.304688 C 9.64063 0.742188 9.64063 1.41406 10.0469 1.85156 L 13.6406 5.41406 L 1.07813 5.41406 C 0.46875 5.41406 0 5.88281 0 6.49219 C 0 7.10156 0.46875 7.57031 1.07813 7.57031 L 13.6406 7.57031 L 10.0469 11.1328 C 9.64063 11.5703 9.64063 12.2422 10.0469 12.6953 C 10.4844 13.0859 11.1719 13.0859 11.6094 12.6953 L 17.0313 7.27344 Z"/></svg>
