<?xml version="1.0" encoding="UTF-8" standalone="yes"?><svg xmlns="http://www.w3.org/2000/svg" xmlns:xlink="http://www.w3.org/1999/xlink" version="1.2" baseProfile="tiny" x="0" y="0" width="20" height="18" viewBox="0 0 20.0103 18.75"><defs/><path fill="#8d624f" d="M 10.0041 0 C 10.5978 0 11.0978 0.3125 11.3791 0.8125 L 19.8166 16.4375 C 20.0822 16.9063 20.0822 17.5 19.7697 18.0156 C 19.5041 18.4844 18.9884 18.75 18.4416 18.75 L 1.56656 18.75 C 1.01969 18.75 0.519686 18.4844 0.238436 18.0156 C -0.0740645 17.5 -0.0740645 16.9063 0.207186 16.4375 L 8.64469 0.8125 C 8.91031 0.3125 9.42594 0 10.0041 0 M 10.0041 13.75 C 9.30094 13.75 8.75406 14.2969 8.75406 15 C 8.75406 15.7031 9.30094 16.25 10.0041 16.25 C 10.7072 16.25 11.2541 15.7031 11.2541 15 C 11.2541 14.2969 10.7072 13.75 10.0041 13.75 M 10.0041 6.25 C 9.30094 6.25 8.72281 6.875 8.80094 7.57813 L 9.06656 11.6406 C 9.11344 12.1094 9.50406 12.5 10.0041 12.5 C 10.5197 12.5 10.9103 12.1094 10.9416 11.6406 L 11.2228 7.57813 C 11.3009 6.875 10.7072 6.25 10.0041 6.25"/></svg>
