<?xml version="1.0" encoding="UTF-8" standalone="yes"?><svg xmlns="http://www.w3.org/2000/svg" xmlns:xlink="http://www.w3.org/1999/xlink" version="1.2" baseProfile="tiny" x="0" y="0" width="18" height="15" viewBox="0 0 18.0202 15.5"><defs/><path fill="#8d624f" d="M 9.44762 0.09375 C 9.16637 -0.03125 8.85387 -0.03125 8.57262 0.09375 L 0.572625 4.09375 C 0.0726247 4.34375 -0.146125 4.96875 0.103875 5.4375 C 0.353875 5.9375 0.978875 6.15625 1.44762 5.90625 L 9.01012 2.125 L 16.5726 5.90625 C 17.0726 6.15625 17.6664 5.9375 17.9164 5.4375 C 18.1664 4.96875 17.9476 4.34375 17.4476 4.09375 L 9.44762 0.09375 M 9.01012 9 C 9.97887 9 10.7601 8.21875 10.7601 7.25 C 10.7601 6.28125 9.97887 5.5 9.01012 5.5 C 8.04137 5.5 7.26012 6.28125 7.26012 7.25 C 7.26012 8.21875 8.04137 9 9.01012 9 M 9.01012 10.5 C 7.35387 10.5 6.01012 11.8438 6.01012 13.5 L 6.01012 14.5 C 6.01012 15.0625 6.44762 15.5 7.01012 15.5 L 11.0101 15.5 C 11.5726 15.5 12.0101 15.0625 12.0101 14.5 L 12.0101 13.5 C 12.0101 11.8438 10.6664 10.5 9.01012 10.5 M 5.01012 8.5 C 5.01012 7.65625 4.35387 7 3.51012 7 C 2.66637 7 2.01012 7.65625 2.01012 8.5 C 2.01012 9.34375 2.66637 10 3.51012 10 C 4.35387 10 5.01012 9.34375 5.01012 8.5 M 16.0101 8.5 C 16.0101 7.65625 15.3539 7 14.5101 7 C 13.6664 7 13.0101 7.65625 13.0101 8.5 C 13.0101 9.34375 13.6664 10 14.5101 10 C 15.3539 10 16.0101 9.34375 16.0101 8.5 M 3.51012 11 C 2.13512 11 1.01012 12.125 1.01012 13.5 L 1.01012 14.5313 C 1.01012 15.0625 1.44762 15.5 1.97887 15.5 L 4.72887 15.5 C 4.57262 15.1875 4.51012 14.8438 4.51012 14.5 L 4.51012 13 C 4.51012 12.4375 4.63512 11.875 4.82262 11.375 C 4.44762 11.125 3.97887 11 3.51012 11 M 13.2914 15.5 L 16.0414 15.5 C 16.5726 15.5 17.0101 15.0625 17.0101 14.5313 L 17.0101 13.5 C 17.0101 12.125 15.8851 11 14.5101 11 C 14.0414 11 13.6039 11.125 13.1976 11.375 C 13.4164 11.875 13.5101 12.4375 13.5101 13 L 13.5101 14.5 C 13.5101 14.8438 13.4476 15.1875 13.2914 15.5"/></svg>
