<?xml version="1.0" encoding="UTF-8" standalone="yes"?><svg xmlns="http://www.w3.org/2000/svg" xmlns:xlink="http://www.w3.org/1999/xlink" version="1.2" baseProfile="tiny" x="0" y="0" width="27" height="21" viewBox="0 0 27 21"><defs/><path fill="#8d624f" d="M 2.25 7.6875 L 12.0469 11.7188 C 12.5156 11.9063 12.9844 12 13.5 12 C 14.0156 12 14.4844 11.9063 14.9531 11.7188 L 26.2969 7.03125 C 26.7188 6.84375 27 6.46875 27 6 C 27 5.53125 26.7188 5.15625 26.2969 4.96875 L 14.9531 0.28125 C 14.4844 0.09375 14.0156 0 13.5 0 C 12.9844 0 12.5156 0.09375 12.0469 0.28125 L 0.703125 4.96875 C 0.28125 5.15625 0 5.53125 0 6 L 0 19.875 C 0 20.4844 0.515625 21 1.125 21 C 1.73438 21 2.25 20.4844 2.25 19.875 L 2.25 7.6875 M 4.5 11.0625 L 4.5 16.5 C 4.5 18.9844 8.53125 21 13.5 21 C 18.4688 21 22.5 18.9844 22.5 16.5 L 22.5 11.0156 L 15.7969 13.7813 C 15.0938 14.1094 14.2969 14.25 13.5 14.25 C 12.7031 14.25 11.9531 14.1094 11.2031 13.7813 L 4.5 11.0156 L 4.5 11.0625"/></svg>
