<?xml version="1.0" encoding="UTF-8" standalone="yes"?><svg xmlns="http://www.w3.org/2000/svg" xmlns:xlink="http://www.w3.org/1999/xlink" version="1.2" baseProfile="tiny" x="0" y="0" width="20" height="17" viewBox="0 0 20 17.5"><defs/><path fill="#8d624f" d="M 10 2.96875 L 9.42188 2.14063 C 8.4375 0.8125 6.875 0 5.20313 0 C 2.34375 0 0 2.34375 0 5.1875 L 0 5.3125 C 0 6.20313 0.234375 7.1875 0.671875 8.125 L 4.8125 8.125 C 4.92188 8.125 5.04688 8.04688 5.07813 7.92188 L 6.32813 4.95313 C 6.48438 4.60938 6.79688 4.375 7.1875 4.375 C 7.54688 4.375 7.89063 4.5625 8.04688 4.92188 L 10.0469 9.375 L 11.6875 6.125 C 11.8438 5.8125 12.1563 5.625 12.5 5.625 C 12.8594 5.625 13.1719 5.8125 13.3594 6.125 L 14.2656 7.96875 C 14.2969 8.04688 14.4219 8.125 14.5313 8.125 L 19.375 8.125 C 19.7656 7.1875 20 6.20313 20 5.3125 L 20 5.1875 C 20 2.34375 17.6563 0 14.8125 0 C 13.125 0 11.5625 0.8125 10.5938 2.14063 L 10 2.96875 M 18.3594 10 L 14.5313 10 C 13.7188 10 12.9375 9.53125 12.5781 8.78125 L 12.5 8.67188 L 10.8594 11.9844 C 10.6719 12.2969 10.3594 12.5 10 12.5 C 9.60938 12.5 9.29688 12.2656 9.14063 11.9531 L 7.23438 7.65625 L 6.79688 8.67188 C 6.48438 9.48438 5.67188 10 4.8125 10 L 1.64063 10 C 3.51563 12.8906 6.45313 15.5469 8.32813 16.9531 C 8.79688 17.3125 9.375 17.5 10 17.5 C 10.5938 17.5 11.2188 17.3438 11.6875 16.9531 C 13.5625 15.5469 16.4844 12.8906 18.3594 10"/></svg>
