<?xml version="1.0" encoding="UTF-8" standalone="yes"?><svg xmlns="http://www.w3.org/2000/svg" xmlns:xlink="http://www.w3.org/1999/xlink" version="1.2" baseProfile="tiny" x="0" y="0" width="18" height="19" viewBox="0 0 18.75 19.8906"><defs/><path fill="#8d624f" d="M 9.89063 0.109375 C 9.73438 0.03125 9.57813 0 9.375 0 C 9.1875 0 9.03125 0.03125 8.875 0.109375 L 1.48438 3.23438 C 0.625 3.59375 0 4.45313 0 5.46875 C 0.046875 9.32813 1.60938 16.4375 8.35938 19.6563 C 8.98438 19.9688 9.76563 19.9688 10.3906 19.6563 C 17.1563 16.4375 18.75 9.32813 18.75 5.46875 C 18.75 4.45313 18.125 3.59375 17.2656 3.23438 L 9.89063 0.109375 M 9.14063 7.1875 L 9.375 7.5 L 9.60938 7.1875 C 10.0781 6.59375 10.75 6.25 11.4531 6.25 C 12.7344 6.25 13.75 7.26563 13.75 8.54688 L 13.75 8.75 C 13.75 10.6563 11.1719 12.5781 10 13.3594 C 9.60938 13.625 9.14063 13.625 8.79688 13.3594 C 7.57813 12.5781 5 10.6563 5 8.75 L 5 8.54688 C 5 7.26563 6.01563 6.25 7.3125 6.25 C 8.01563 6.25 8.71875 6.59375 9.14063 7.1875"/></svg>
