<?xml version="1.0" encoding="UTF-8" standalone="yes"?><svg xmlns="http://www.w3.org/2000/svg" xmlns:xlink="http://www.w3.org/1999/xlink" version="1.2" baseProfile="tiny" x="0" y="0" width="21" height="16" viewBox="0 0 21 16.3438"><defs/><path fill="#8d624f" d="M 0 2.32813 C 0 1.0625 1.0625 0 2.32813 0 L 18.6719 0 C 19.9531 0 21 1.0625 21 2.32813 L 0 2.32813 M 0 4.07813 L 21 4.07813 L 21 14 C 21 15.2813 19.9531 16.3438 18.6719 16.3438 L 2.32813 16.3438 C 1.0625 16.3438 0 15.2813 0 14 L 0 4.07813 M 9 14 C 9.78125 14 10.3281 13.3125 9.84375 12.7344 C 9.29688 12.0781 8.5 11.6719 7.57813 11.6719 L 5.25 11.6719 C 4.34375 11.6719 3.53125 12.0781 2.98438 12.7344 C 2.51563 13.3125 3.09375 14 3.82813 14 L 9 14 M 6.42188 10.2188 C 7.54688 10.2188 8.45313 9.29688 8.45313 8.17188 C 8.45313 7.04688 7.54688 6.125 6.42188 6.125 C 5.28125 6.125 4.375 7.04688 4.375 8.17188 C 4.375 9.29688 5.28125 10.2188 6.42188 10.2188 M 13.125 6.42188 C 12.6563 6.42188 12.25 6.82813 12.25 7.29688 C 12.25 7.76563 12.6563 8.17188 13.125 8.17188 L 17.2188 8.17188 C 17.6875 8.17188 18.0938 7.76563 18.0938 7.29688 C 18.0938 6.82813 17.6875 6.42188 17.2188 6.42188 L 13.125 6.42188 M 13.125 9.92188 C 12.6563 9.92188 12.25 10.3281 12.25 10.7969 C 12.25 11.2656 12.6563 11.6719 13.125 11.6719 L 17.2188 11.6719 C 17.6875 11.6719 18.0938 11.2656 18.0938 10.7969 C 18.0938 10.3281 17.6875 9.92188 17.2188 9.92188 L 13.125 9.92188"/></svg>
