<?xml version="1.0" encoding="UTF-8" standalone="yes"?><svg xmlns="http://www.w3.org/2000/svg" xmlns:xlink="http://www.w3.org/1999/xlink" version="1.2" baseProfile="tiny" x="0" y="0" width="18" height="24" viewBox="0 0 18 24"><defs/><path fill="#8d624f" d="M 1.5 0 C 0.65625 0 0 0.65625 0 1.5 C 0 2.34375 0.65625 3 1.5 3 L 1.5 3.51563 C 1.5 5.48438 2.29688 7.40625 3.70313 8.8125 L 6.89063 12 L 3.70313 15.1875 C 2.29688 16.5938 1.5 18.5156 1.5 20.4844 L 1.5 21 C 0.65625 21 0 21.6563 0 22.5 C 0 23.3438 0.65625 24 1.5 24 L 16.5 24 C 17.3438 24 18 23.3438 18 22.5 C 18 21.6563 17.3438 21 16.5 21 L 16.5 20.4844 C 16.5 18.5156 15.7031 16.5938 14.2969 15.1875 L 11.1094 12 L 14.2969 8.8125 C 15.7031 7.40625 16.5 5.48438 16.5 3.51563 L 16.5 3 C 17.3438 3 18 2.34375 18 1.5 C 18 0.65625 17.3438 0 16.5 0 L 1.5 0 M 4.5 3.51563 L 4.5 3 L 13.5 3 L 13.5 3.51563 C 13.5 4.40625 13.2188 5.25 12.75 6 L 5.25 6 C 4.78125 5.25 4.5 4.40625 4.5 3.51563 M 5.25 18 C 5.4375 17.7656 5.625 17.5313 5.8125 17.2969 L 9 14.1094 L 12.1875 17.2969 C 12.4219 17.5313 12.6094 17.7656 12.75 18 L 5.25 18"/></svg>
