<?xml version="1.0" encoding="UTF-8" standalone="yes"?><svg xmlns="http://www.w3.org/2000/svg" xmlns:xlink="http://www.w3.org/1999/xlink" version="1.2" baseProfile="tiny" x="0" y="0" width="26" height="24" viewBox="0 0 26.9995 24"><defs/><path fill="#8d624f" d="M 13.125 1.45313 C 12.4688 0.5625 11.3906 0 10.2656 0 C 8.34375 0 6.75 1.59375 6.75 3.51563 L 6.75 3.60938 C 6.75 6.65625 10.5938 9.89063 12.4688 11.2969 C 13.0781 11.7188 13.9219 11.7188 14.5313 11.2969 C 16.4063 9.89063 20.25 6.65625 20.25 3.60938 L 20.25 3.51563 C 20.25 1.59375 18.6563 0 16.7344 0 C 15.6094 0 14.5313 0.5625 13.875 1.45313 L 13.5 2.01563 L 13.125 1.45313 M 5.10938 16.0313 L 3.14063 18 L 1.5 18 C 0.65625 18 0 18.6563 0 19.5 L 0 22.5 C 0 23.3438 0.65625 24 1.5 24 L 16.5469 24 C 17.9063 24 19.2188 23.5781 20.2969 22.7813 L 26.25 18.375 C 27.0938 17.7656 27.2344 16.5938 26.625 15.75 C 26.0156 14.9531 24.8438 14.7656 24 15.375 L 18.4219 19.5 L 13.125 19.5 C 12.5156 19.5 12 18.9844 12 18.375 C 12 17.7656 12.5156 17.25 13.125 17.25 L 16.5 17.25 C 17.3438 17.25 18 16.5938 18 15.75 C 18 14.9063 17.3438 14.25 16.5 14.25 L 9.375 14.25 C 7.78125 14.25 6.23438 14.9063 5.10938 16.0313"/></svg>
