<?xml version="1.0" encoding="UTF-8" standalone="yes"?><svg xmlns="http://www.w3.org/2000/svg" xmlns:xlink="http://www.w3.org/1999/xlink" version="1.2" baseProfile="tiny" x="0" y="0" width="25" height="12" viewBox="0 0 25 12.5"><defs/><path fill="#8d624f" d="M 0 6.25 C 0 2.8125 2.8125 0 6.25 0 C 8.20313 0 10.0781 0.9375 11.25 2.5 L 12.5 4.17188 L 13.75 2.5 C 14.9219 0.9375 16.7969 0 18.75 0 C 22.1875 0 25 2.8125 25 6.25 C 25 9.6875 22.1875 12.5 18.75 12.5 C 16.7969 12.5 14.9219 11.5625 13.75 10 L 12.5 8.3125 L 11.25 10 C 10.0781 11.5625 8.20313 12.5 6.25 12.5 C 2.8125 12.5 0 9.6875 0 6.25 M 10.9375 6.25 L 9.26563 3.98438 C 8.5625 3.04688 7.42188 2.5 6.25 2.5 C 4.1875 2.5 2.5 4.17188 2.5 6.25 C 2.5 8.3125 4.1875 10 6.25 10 C 7.42188 10 8.5625 9.45313 9.26563 8.51563 L 10.9375 6.25 M 14.0625 6.25 L 15.75 8.51563 C 16.4531 9.45313 17.5781 10 18.75 10 C 20.8281 10 22.5 8.3125 22.5 6.25 C 22.5 4.17188 20.8281 2.5 18.75 2.5 C 17.5781 2.5 16.4531 3.04688 15.75 3.98438 L 14.0625 6.25"/></svg>
