<?xml version="1.0" encoding="UTF-8" standalone="yes"?><svg xmlns="http://www.w3.org/2000/svg" xmlns:xlink="http://www.w3.org/1999/xlink" version="1.2" baseProfile="tiny" x="0" y="0" width="18" height="24" viewBox="0 0 18 24"><defs/><path fill="#8d624f" d="M 3 0 C 1.35938 0 0 1.35938 0 3 L 0 21 C 0 22.6406 1.35938 24 3 24 L 15 24 C 16.6406 24 18 22.6406 18 21 L 18 3 C 18 1.35938 16.6406 0 15 0 L 3 0 M 4.5 3 L 13.5 3 C 14.3438 3 15 3.65625 15 4.5 L 15 6 C 15 6.84375 14.3438 7.5 13.5 7.5 L 4.5 7.5 C 3.65625 7.5 3 6.84375 3 6 L 3 4.5 C 3 3.65625 3.65625 3 4.5 3 M 5.25 10.875 C 5.25 11.4844 4.73438 12 4.125 12 C 3.51563 12 3 11.4844 3 10.875 C 3 10.2656 3.51563 9.75 4.125 9.75 C 4.73438 9.75 5.25 10.2656 5.25 10.875 M 9 12 C 8.39063 12 7.875 11.4844 7.875 10.875 C 7.875 10.2656 8.39063 9.75 9 9.75 C 9.60938 9.75 10.125 10.2656 10.125 10.875 C 10.125 11.4844 9.60938 12 9 12 M 15 10.875 C 15 11.4844 14.4844 12 13.875 12 C 13.2656 12 12.75 11.4844 12.75 10.875 C 12.75 10.2656 13.2656 9.75 13.875 9.75 C 14.4844 9.75 15 10.2656 15 10.875 M 4.125 16.5 C 3.51563 16.5 3 15.9844 3 15.375 C 3 14.7656 3.51563 14.25 4.125 14.25 C 4.73438 14.25 5.25 14.7656 5.25 15.375 C 5.25 15.9844 4.73438 16.5 4.125 16.5 M 10.125 15.375 C 10.125 15.9844 9.60938 16.5 9 16.5 C 8.39063 16.5 7.875 15.9844 7.875 15.375 C 7.875 14.7656 8.39063 14.25 9 14.25 C 9.60938 14.25 10.125 14.7656 10.125 15.375 M 13.875 16.5 C 13.2656 16.5 12.75 15.9844 12.75 15.375 C 12.75 14.7656 13.2656 14.25 13.875 14.25 C 14.4844 14.25 15 14.7656 15 15.375 C 15 15.9844 14.4844 16.5 13.875 16.5 M 3 19.875 C 3 19.2656 3.51563 18.75 4.125 18.75 L 9.375 18.75 C 9.98438 18.75 10.5 19.2656 10.5 19.875 C 10.5 20.4844 9.98438 21 9.375 21 L 4.125 21 C 3.51563 21 3 20.4844 3 19.875 M 13.875 18.75 C 14.4844 18.75 15 19.2656 15 19.875 C 15 20.4844 14.4844 21 13.875 21 C 13.2656 21 12.75 20.4844 12.75 19.875 C 12.75 19.2656 13.2656 18.75 13.875 18.75"/></svg>
