<?xml version="1.0" encoding="UTF-8" standalone="yes"?><svg xmlns="http://www.w3.org/2000/svg" xmlns:xlink="http://www.w3.org/1999/xlink" version="1.2" baseProfile="tiny" x="0" y="0" width="20" height="15" viewBox="0 0 20 15"><defs/><path fill="#8d624f" d="M 2.5 0 C 1.14063 0 0 1.125 0 2.5 L 0 12.5 C 0 13.8594 1.14063 15 2.5 15 L 3.125 15 L 3.125 0 L 2.5 0 M 5 0 L 5 15 L 15 15 L 15 0 L 5 0 M 17.5 15 C 18.875 15 20 13.8594 20 12.5 L 20 2.5 C 20 1.125 18.875 0 17.5 0 L 16.875 0 L 16.875 15 L 17.5 15 M 8.75 4.6875 C 8.75 4.32813 9.03125 4.0625 9.375 4.0625 L 10.625 4.0625 C 10.9844 4.0625 11.25 4.32813 11.25 4.6875 L 11.25 6.25 L 12.8125 6.25 C 13.1719 6.25 13.4375 6.51563 13.4375 6.875 L 13.4375 8.125 C 13.4375 8.46875 13.1719 8.75 12.8125 8.75 L 11.25 8.75 L 11.25 10.3125 C 11.25 10.6563 10.9844 10.9375 10.625 10.9375 L 9.375 10.9375 C 9.03125 10.9375 8.75 10.6563 8.75 10.3125 L 8.75 8.75 L 7.1875 8.75 C 6.84375 8.75 6.5625 8.46875 6.5625 8.125 L 6.5625 6.875 C 6.5625 6.51563 6.84375 6.25 7.1875 6.25 L 8.75 6.25 L 8.75 4.6875"/></svg>
