<?xml version="1.0" encoding="UTF-8" standalone="yes"?><svg xmlns="http://www.w3.org/2000/svg" xmlns:xlink="http://www.w3.org/1999/xlink" version="1.2" baseProfile="tiny" x="0" y="0" width="20" height="20" viewBox="0 0 20.0044 20.015"><defs/><path fill="#8d624f" d="M 6.23896 0.98416 C 5.92646 0.249785 5.14521 -0.14084 4.36396 0.0466603 L 4.17646 0.124785 C 1.62959 0.82791 -0.526662 3.24979 0.113963 6.21854 C 1.55146 13.0623 6.94209 18.4529 13.7858 19.906 C 16.7546 20.531 19.2077 18.3748 19.8796 15.8279 L 19.9577 15.6404 C 20.1452 14.8592 19.7546 14.0779 19.0202 13.7654 L 15.2233 12.156 C 14.5671 11.8904 13.8171 12.0779 13.3952 12.6248 L 11.864 14.4685 C 9.12959 13.0935 6.91084 10.8279 5.66084 8.01541 L 7.37959 6.60916 C 7.92646 6.18729 8.11396 5.43729 7.84834 4.78104 L 6.23896 0.98416 Z"/></svg>
