<?xml version="1.0" encoding="UTF-8" standalone="yes"?><svg xmlns="http://www.w3.org/2000/svg" xmlns:xlink="http://www.w3.org/1999/xlink" version="1.2" baseProfile="tiny" x="0" y="0" width="21" height="22" viewBox="0 0 21 22.5"><defs/><path fill="#8d624f" d="M 15 0 C 15.8438 0 16.5 0.65625 16.5 1.5 L 16.5 3 L 18 3 C 19.6406 3 21 4.35938 21 6 L 21 19.5 C 21 21.1406 19.6406 22.5 18 22.5 L 3 22.5 C 1.35938 22.5 0 21.1406 0 19.5 L 0 6 C 0 4.35938 1.35938 3 3 3 L 4.5 3 L 4.5 1.5 C 4.5 0.65625 5.15625 0 6 0 C 6.84375 0 7.5 0.65625 7.5 1.5 L 7.5 3 L 13.5 3 L 13.5 1.5 C 13.5 0.65625 14.1563 0 15 0 M 16.0313 7.59375 C 15.5156 7.21875 14.8125 7.3125 14.4844 7.82813 L 8.85938 15.5156 L 6.42188 13.0781 C 6 12.6563 5.25 12.6563 4.82813 13.0781 C 4.40625 13.5469 4.40625 14.25 4.82813 14.6719 L 8.20313 18.0469 C 8.4375 18.2813 8.76563 18.4219 9.09375 18.375 C 9.42188 18.375 9.70313 18.1875 9.89063 17.9063 L 16.2656 9.14063 C 16.6406 8.67188 16.5469 7.96875 16.0313 7.59375"/></svg>
