<?xml version="1.0" encoding="UTF-8" standalone="yes"?><svg xmlns="http://www.w3.org/2000/svg" xmlns:xlink="http://www.w3.org/1999/xlink" version="1.2" baseProfile="tiny" x="0" y="0" width="17" height="18" viewBox="0 0 17.5 18.75"><defs/><path fill="#8d624f" d="M 5 0 C 4.29688 0 3.75 0.546875 3.75 1.25 L 3.75 2.5 L 2.5 2.5 C 1.14063 2.5 0 3.625 0 5 L 0 6.875 L 17.5 6.875 L 17.5 5 C 17.5 3.625 16.375 2.5 15 2.5 L 13.75 2.5 L 13.75 1.25 C 13.75 0.546875 13.2031 0 12.5 0 C 11.7969 0 11.25 0.546875 11.25 1.25 L 11.25 2.5 L 6.25 2.5 L 6.25 1.25 C 6.25 0.546875 5.70313 0 5 0 M 0 8.75 L 0 16.25 C 0 17.625 1.14063 18.75 2.5 18.75 L 15 18.75 C 16.375 18.75 17.5 17.625 17.5 16.25 L 17.5 8.75 L 0 8.75"/></svg>
