<?xml version="1.0" encoding="UTF-8" standalone="yes"?><svg xmlns="http://www.w3.org/2000/svg" xmlns:xlink="http://www.w3.org/1999/xlink" version="1.2" baseProfile="tiny" x="0" y="0" width="24" height="24" viewBox="0 0 24 24"><defs/><path fill="#8d624f" d="M 12 0 C 18.6094 0 24 5.39063 24 12 C 24 18.6094 18.6094 24 12 24 C 5.39063 24 0 18.6094 0 12 C 0 5.39063 5.39063 0 12 0 M 10.875 5.625 L 10.875 12 C 10.875 12.375 11.0625 12.75 11.3906 12.9375 L 15.8906 15.9375 C 16.4063 16.2656 17.1094 16.125 17.4375 15.6094 C 17.7656 15.0938 17.625 14.3906 17.1094 14.0625 L 13.125 11.3906 L 13.125 5.625 C 13.125 5.01563 12.6094 4.5 12 4.5 C 11.3906 4.5 10.875 5.01563 10.875 5.625"/></svg>
