<?xml version="1.0" encoding="UTF-8" standalone="yes"?><svg xmlns="http://www.w3.org/2000/svg" xmlns:xlink="http://www.w3.org/1999/xlink" version="1.2" baseProfile="tiny" x="0" y="0" width="15" height="22" viewBox="0 0 15.9304 22.5"><defs/><path fill="#8d624f" d="M 7.49295 0 C 8.7117 0 9.68045 0.96875 9.68045 2.1875 C 9.68045 3.39063 8.7117 4.375 7.49295 4.375 C 6.28982 4.375 5.30545 3.39063 5.30545 2.1875 C 5.30545 0.96875 6.28982 0 7.49295 0 M 4.05545 10.5 L 2.25857 12.9219 C 1.8367 13.4688 1.05545 13.5938 0.508574 13.2031 C -0.0383009 12.7656 -0.163301 11.9844 0.227324 11.4375 L 3.00857 7.73438 C 3.97732 6.40625 5.53982 5.625 7.18045 5.625 C 8.82107 5.625 10.3836 6.40625 11.3679 7.73438 L 14.1336 11.4375 C 14.5242 11.9844 14.4148 12.7656 13.8679 13.2031 C 13.3211 13.5938 12.5398 13.4688 12.1023 12.9219 L 10.3054 10.5 L 10.3054 21.25 C 10.3054 21.9531 9.75857 22.5 9.05545 22.5 C 8.35232 22.5 7.80545 21.9531 7.80545 21.25 L 7.80545 15 C 7.80545 14.6406 7.53982 14.375 7.18045 14.375 C 6.8367 14.375 6.55545 14.6406 6.55545 15 L 6.55545 21.25 C 6.55545 21.9531 6.00857 22.5 5.30545 22.5 C 4.60232 22.5 4.05545 21.9531 4.05545 21.25 L 4.05545 10.5 M 13.7429 16.25 C 13.5867 16.25 13.4304 16.4063 13.4304 16.5625 C 13.4304 17.0625 13.0086 17.5 12.4929 17.5 C 11.9929 17.5 11.5554 17.0625 11.5554 16.5625 C 11.5554 15.3438 12.5398 14.375 13.7429 14.375 C 14.9617 14.375 15.9304 15.3438 15.9304 16.5625 L 15.9304 21.5625 C 15.9304 22.0781 15.5086 22.5 14.9929 22.5 C 14.4929 22.5 14.0554 22.0781 14.0554 21.5625 L 14.0554 16.5625 C 14.0554 16.4063 13.8992 16.25 13.7429 16.25"/></svg>
