<?xml version="1.0" encoding="UTF-8" standalone="yes"?><svg xmlns="http://www.w3.org/2000/svg" xmlns:xlink="http://www.w3.org/1999/xlink" version="1.2" baseProfile="tiny" x="0" y="0" width="15" height="20" viewBox="0 0 15 20"><defs/><path fill="#8d624f" d="M 2.5 0 C 1.14063 0 0 1.125 0 2.5 L 0 17.5 C 0 18.875 1.14063 20 2.5 20 L 12.5 20 C 13.875 20 15 18.875 15 17.5 L 15 2.5 C 15 1.125 13.875 0 12.5 0 L 2.5 0 M 3.75 2.5 L 11.25 2.5 C 11.9531 2.5 12.5 3.04688 12.5 3.75 L 12.5 5 C 12.5 5.70313 11.9531 6.25 11.25 6.25 L 3.75 6.25 C 3.04688 6.25 2.5 5.70313 2.5 5 L 2.5 3.75 C 2.5 3.04688 3.04688 2.5 3.75 2.5 M 4.375 9.0625 C 4.375 9.5625 3.95313 10 3.4375 10 C 2.9375 10 2.5 9.5625 2.5 9.0625 C 2.5 8.54688 2.9375 8.125 3.4375 8.125 C 3.95313 8.125 4.375 8.54688 4.375 9.0625 M 7.5 10 C 7 10 6.5625 9.5625 6.5625 9.0625 C 6.5625 8.54688 7 8.125 7.5 8.125 C 8.01563 8.125 8.4375 8.54688 8.4375 9.0625 C 8.4375 9.5625 8.01563 10 7.5 10 M 12.5 9.0625 C 12.5 9.5625 12.0781 10 11.5625 10 C 11.0625 10 10.625 9.5625 10.625 9.0625 C 10.625 8.54688 11.0625 8.125 11.5625 8.125 C 12.0781 8.125 12.5 8.54688 12.5 9.0625 M 3.4375 13.75 C 2.9375 13.75 2.5 13.3125 2.5 12.8125 C 2.5 12.2969 2.9375 11.875 3.4375 11.875 C 3.95313 11.875 4.375 12.2969 4.375 12.8125 C 4.375 13.3125 3.95313 13.75 3.4375 13.75 M 8.4375 12.8125 C 8.4375 13.3125 8.01563 13.75 7.5 13.75 C 7 13.75 6.5625 13.3125 6.5625 12.8125 C 6.5625 12.2969 7 11.875 7.5 11.875 C 8.01563 11.875 8.4375 12.2969 8.4375 12.8125 M 11.5625 13.75 C 11.0625 13.75 10.625 13.3125 10.625 12.8125 C 10.625 12.2969 11.0625 11.875 11.5625 11.875 C 12.0781 11.875 12.5 12.2969 12.5 12.8125 C 12.5 13.3125 12.0781 13.75 11.5625 13.75 M 2.5 16.5625 C 2.5 16.0469 2.9375 15.625 3.4375 15.625 L 7.8125 15.625 C 8.32813 15.625 8.75 16.0469 8.75 16.5625 C 8.75 17.0625 8.32813 17.5 7.8125 17.5 L 3.4375 17.5 C 2.9375 17.5 2.5 17.0625 2.5 16.5625 M 11.5625 15.625 C 12.0781 15.625 12.5 16.0469 12.5 16.5625 C 12.5 17.0625 12.0781 17.5 11.5625 17.5 C 11.0625 17.5 10.625 17.0625 10.625 16.5625 C 10.625 16.0469 11.0625 15.625 11.5625 15.625"/></svg>
