<?xml version="1.0" encoding="UTF-8" standalone="yes"?><svg xmlns="http://www.w3.org/2000/svg" xmlns:xlink="http://www.w3.org/1999/xlink" version="1.2" baseProfile="tiny" x="0" y="0" width="21" height="20" viewBox="0 0 21.5066 20.5316"><defs/><path fill="#8d624f" d="M 11.6051 0.5 C 11.4176 0.1875 11.1051 0 10.7457 0 C 10.402 0 10.0895 0.1875 9.93324 0.5 L 7.04261 6.125 L 0.792613 7.14063 C 0.433238 7.1875 0.167613 7.42188 0.0426126 7.76563 C -0.0667624 8.125 0.0426126 8.46875 0.276988 8.70313 L 4.73011 13.2031 L 3.76136 19.4531 C 3.71449 19.8125 3.83949 20.1563 4.15199 20.3594 C 4.41761 20.5469 4.80824 20.5938 5.12074 20.4375 L 10.7457 17.5781 L 16.3707 20.4375 C 16.6832 20.5938 17.0739 20.5469 17.3551 20.3594 C 17.6676 20.1563 17.777 19.8125 17.7457 19.4531 L 16.7614 13.2031 L 21.2145 8.70313 C 21.4957 8.46875 21.5739 8.125 21.4489 7.76563 C 21.3395 7.42188 21.0582 7.1875 20.7145 7.14063 L 14.4645 6.125 L 11.6051 0.5 Z"/></svg>
