<?xml version="1.0" encoding="UTF-8" standalone="yes"?><svg fill="none" xmlns="http://www.w3.org/2000/svg" xmlns:xlink="http://www.w3.org/1999/xlink" version="1.2" baseProfile="tiny" x="0" y="0" width="64" height="64" viewBox="0 0 64 64"><defs><linearGradient id="wps{61a080c7-752a-4d9e-8dde-1b2d324ac7c7}_solid@Accent1_1.00@Accent1_1.00" x1="0" y1="0.5" x2="1" y2="0.5" spreadMethod="pad" gradientUnits="userSpaceOnUse"><stop offset="0" stop-color="#ffffff" stop-opacity="1"/><stop offset="1" stop-color="#ffffff" stop-opacity="1"/></linearGradient></defs><defs/><path fill="url(#wps{61a080c7-752a-4d9e-8dde-1b2d324ac7c7}_solid@Accent1_1.00@Accent1_1.00)" fill-opacity="1" d="M 44.7689 6.35498 C 48.8727 5.62335 52.8733 6.04564 55.4144 8.58643 L 55.4153 8.58643 C 57.9557 11.1281 58.3746 15.1282 57.6409 19.23 C 56.9464 23.1124 55.1543 27.5301 52.4407 31.9956 C 55.156 36.4629 56.9484 40.8837 57.6429 44.7681 C 58.3764 48.8715 57.9569 52.8739 55.4153 55.4155 C 52.8739 57.9565 48.8724 58.3766 44.7689 57.644 C 40.8844 56.9505 36.4636 55.1595 31.9964 52.4448 C 27.5308 55.1582 23.1126 56.9494 19.2298 57.6431 C 15.1277 58.3759 11.1276 57.9557 8.58624 55.4155 L 8.58624 55.4146 C 6.04545 52.8735 5.62316 48.8728 6.3548 44.769 C 7.04742 40.8843 8.83656 36.4629 11.5511 31.9956 C 8.83832 27.5301 7.04955 23.1115 6.35675 19.229 C 5.62485 15.1268 6.04572 11.1272 8.58624 8.58643 C 11.127 6.04571 15.1265 5.62504 19.2288 6.35693 C 23.1114 7.04968 27.5307 8.83741 31.9964 11.5503 C 36.4633 8.83612 40.8845 7.04753 44.7689 6.35498 M 14.0169 35.7124 C 12.0462 39.2666 10.8011 42.623 10.2933 45.4712 C 9.64491 49.1078 10.2621 51.4339 11.4144 52.5864 L 11.6439 52.7954 C 12.8618 53.8098 15.1184 54.3135 18.5267 53.7046 C 21.3732 53.196 24.7268 51.949 28.2796 49.979 C 27.957 49.7463 27.6349 49.5084 27.3128 49.2661 C 27.3072 49.2619 27.3018 49.2576 27.2962 49.2534 C 26.6532 48.7694 26.0113 48.2665 25.3724 47.7446 C 25.3521 47.7281 25.3321 47.7114 25.3118 47.6948 C 24.7056 47.1984 24.1022 46.6849 23.5023 46.1548 C 23.453 46.1113 23.404 46.0676 23.3548 46.0239 C 22.773 45.5067 22.1948 44.9738 21.6214 44.4253 C 21.5597 44.3663 21.4984 44.3069 21.4368 44.2476 C 21.1525 43.9734 20.868 43.6963 20.5862 43.4146 C 20.2894 43.1177 19.9976 42.8187 19.7093 42.519 C 19.6786 42.4872 19.6481 42.4552 19.6175 42.4233 C 19.056 41.8374 18.5106 41.2466 17.9818 40.6519 C 17.9334 40.5975 17.8853 40.5432 17.8372 40.4888 C 17.3178 39.9005 16.8145 39.3086 16.3275 38.7144 C 16.2828 38.6599 16.238 38.6058 16.1937 38.5513 C 15.6998 37.9445 15.2228 37.3355 14.763 36.7251 C 14.7432 36.6989 14.7241 36.6722 14.7044 36.646 C 14.4709 36.3349 14.2415 36.0239 14.0169 35.7124 M 49.9769 35.7134 C 49.7541 36.0227 49.5258 36.3312 49.2943 36.6401 C 49.2693 36.6734 49.2441 36.7065 49.2191 36.7397 C 48.7595 37.3503 48.2831 37.9599 47.7894 38.5669 C 47.7487 38.6169 47.7072 38.6663 47.6663 38.7163 C 47.4424 38.9899 47.2165 39.2642 46.9857 39.5366 C 46.952 39.5764 46.9179 39.616 46.8841 39.6558 C 46.6598 39.9191 46.4312 40.1808 46.2005 40.4429 C 46.1206 40.5336 46.0409 40.6247 45.9603 40.7153 C 45.8257 40.8664 45.6897 41.0169 45.553 41.1675 C 45.3599 41.3803 45.1645 41.5925 44.9671 41.8042 C 44.8053 41.9777 44.6425 42.1511 44.4778 42.3237 C 44.3839 42.4222 44.2895 42.5205 44.1946 42.6187 C 44.0181 42.8014 43.8402 42.9838 43.6605 43.1655 C 43.5786 43.2483 43.4979 43.333 43.4153 43.4155 C 43.3273 43.5035 43.237 43.589 43.1487 43.6763 C 42.9854 43.8377 42.8217 43.9979 42.6575 44.1567 C 42.5363 44.274 42.4149 44.3905 42.2933 44.5063 C 42.0709 44.7182 41.8481 44.9281 41.6243 45.1353 C 41.5895 45.1675 41.5557 45.2008 41.5208 45.2329 C 41.2464 45.4859 40.9699 45.7341 40.6937 45.98 C 40.6124 46.0523 40.5309 46.1241 40.4495 46.1958 C 39.8646 46.7112 39.2767 47.2114 38.6859 47.6948 C 38.6563 47.719 38.6266 47.743 38.597 47.7671 C 37.6402 48.5469 36.6781 49.2854 35.7142 49.98 C 39.2682 51.9508 42.624 53.1981 45.472 53.7065 C 49.1085 54.3557 51.4339 53.7384 52.5862 52.5864 C 53.7383 51.4343 54.3555 49.109 53.7054 45.4722 C 53.228 42.8021 52.1017 39.6853 50.3382 36.3774 L 49.9769 35.7134 M 31.9974 16.3013 C 29.1136 18.2497 26.2001 20.6308 23.4153 23.4155 C 20.6307 26.2002 18.2494 29.1129 16.3011 31.9966 C 17.0718 33.1381 17.9099 34.2843 18.8138 35.4253 C 18.9808 35.6361 19.1501 35.8467 19.3216 36.0571 C 20.569 37.5876 21.9341 39.1061 23.4144 40.5864 C 24.7289 41.9009 26.0732 43.1242 27.429 44.2554 C 27.9856 44.7197 28.5443 45.1683 29.1038 45.6011 C 29.7517 46.1022 30.4007 46.5822 31.0491 47.0405 C 31.3648 47.2637 31.6802 47.4819 31.9954 47.6948 C 34.8827 45.7462 37.8016 43.371 40.5862 40.5864 C 41.8774 39.2952 43.08 37.9738 44.1937 36.6411 C 44.6869 36.0506 45.1626 35.4577 45.6204 34.8638 C 45.6684 34.8016 45.7164 34.7395 45.764 34.6772 C 46.0327 34.3257 46.2958 33.9744 46.5521 33.6226 C 46.5579 33.6146 46.5629 33.6061 46.5687 33.5981 C 46.9572 33.064 47.3311 32.5296 47.6907 31.9966 C 47.6822 31.9839 47.6739 31.9711 47.6653 31.9585 C 47.4524 31.6436 47.2342 31.3285 47.011 31.0132 C 46.9698 30.9549 46.9286 30.8966 46.887 30.8384 C 46.6604 30.5207 46.4286 30.2029 46.1917 29.8853 C 45.9973 29.6246 45.7992 29.3644 45.598 29.104 C 45.3071 28.7277 45.0085 28.3522 44.7034 27.9771 C 43.6985 26.7417 42.6175 25.514 41.4603 24.3081 C 41.1734 24.0092 40.8824 23.7107 40.5862 23.4146 C 40.5564 23.3847 40.5262 23.3554 40.4964 23.3257 C 39.2327 22.0672 37.942 20.8926 36.64 19.8032 C 36.2735 19.4967 35.9063 19.1967 35.5384 18.9038 C 34.3602 17.9657 33.1764 17.0973 31.9974 16.3013 M 32.0423 25.9517 C 35.356 25.9517 38.0423 28.638 38.0423 31.9517 C 38.0422 35.2653 35.3559 37.9517 32.0423 37.9517 C 28.7289 37.9514 26.0424 35.2651 26.0423 31.9517 C 26.0423 28.6381 28.7288 25.9519 32.0423 25.9517 M 32.0423 29.9517 C 30.938 29.9519 30.0423 30.8473 30.0423 31.9517 C 30.0424 33.056 30.938 33.9514 32.0423 33.9517 C 33.1468 33.9517 34.0422 33.0561 34.0423 31.9517 C 34.0423 30.8471 33.1469 29.9517 32.0423 29.9517 M 18.5267 10.2944 C 14.8915 9.64586 12.5675 10.2634 11.4153 11.4155 C 10.2635 12.5677 9.6457 14.892 10.2943 18.5269 C 10.7705 21.1956 11.8947 24.311 13.6566 27.6177 L 14.0169 28.2817 C 14.2327 27.9827 14.453 27.6839 14.6771 27.3853 C 14.718 27.3306 14.7589 27.2758 14.8001 27.2212 C 15.2346 26.6463 15.685 26.0731 16.1497 25.5015 C 16.2211 25.4136 16.2925 25.3255 16.3646 25.2378 C 16.5989 24.9528 16.8367 24.668 17.0784 24.3843 C 17.0946 24.3653 17.1101 24.3456 17.1263 24.3267 C 17.3389 24.0777 17.5554 23.8303 17.7737 23.5825 C 17.8632 23.481 17.9528 23.3792 18.0433 23.2778 C 18.5341 22.7279 19.0393 22.1816 19.5579 21.6392 C 19.6331 21.5605 19.7087 21.4822 19.7845 21.4038 C 20.0485 21.1305 20.3153 20.8574 20.5862 20.5864 C 20.8569 20.3157 21.1296 20.0493 21.4026 19.7856 C 21.4844 19.7067 21.5658 19.6276 21.6478 19.5493 C 21.8931 19.3148 22.139 19.0828 22.386 18.854 C 22.4359 18.8078 22.4855 18.7613 22.5355 18.7153 C 22.8046 18.4676 23.0752 18.2239 23.346 17.9829 C 23.4033 17.932 23.4606 17.8812 23.5179 17.8306 C 23.7861 17.5936 24.0549 17.3597 24.3245 17.1294 C 24.3611 17.0982 24.3973 17.0667 24.4339 17.0356 C 24.7032 16.8067 24.974 16.5821 25.2444 16.3599 C 25.3226 16.2956 25.4005 16.2312 25.4788 16.1675 C 25.6987 15.9886 25.9195 15.8126 26.14 15.6382 C 26.2615 15.542 26.3825 15.4459 26.5042 15.3511 C 26.7319 15.1736 26.9597 14.9983 27.1878 14.8257 C 27.2723 14.7617 27.3572 14.6985 27.4417 14.6353 C 27.7215 14.4258 28.0004 14.2183 28.2806 14.0161 C 24.7278 12.0465 21.3731 10.8023 18.5267 10.2944 M 52.5862 11.4146 C 51.4337 10.2623 49.1076 9.64511 45.471 10.2935 C 42.623 10.8012 39.2662 12.0455 35.7122 14.0161 C 36.0142 14.2338 36.315 14.457 36.6165 14.6831 C 36.6647 14.7192 36.7129 14.7552 36.761 14.7915 C 37.0491 15.0088 37.337 15.2297 37.6243 15.4546 C 37.6431 15.4693 37.6622 15.4838 37.681 15.4985 C 37.9644 15.7209 38.2471 15.9475 38.5296 16.1772 C 38.6036 16.2374 38.6773 16.2982 38.7513 16.3589 C 39.3228 16.8281 39.8924 17.3119 40.4583 17.811 C 40.5279 17.8724 40.5978 17.9338 40.6673 17.9956 C 40.9294 18.2288 41.191 18.465 41.4515 18.7046 C 41.5079 18.7565 41.5641 18.8087 41.6204 18.8608 C 41.8705 19.0924 42.1192 19.3275 42.3675 19.5649 C 42.4347 19.6291 42.5016 19.6937 42.5687 19.7583 C 42.8514 20.031 43.1342 20.3062 43.4144 20.5864 C 43.6852 20.8572 43.9514 21.1306 44.2151 21.4038 C 44.289 21.4803 44.3626 21.5567 44.4359 21.6333 C 44.6758 21.8844 44.9128 22.1364 45.1468 22.3892 C 45.1747 22.4193 45.203 22.4489 45.2308 22.479 C 45.4808 22.7501 45.7269 23.0225 45.97 23.2954 C 46.0587 23.3949 46.1469 23.4945 46.2347 23.5942 C 46.7176 24.1432 47.1862 24.6953 47.6409 25.2495 C 47.701 25.3228 47.761 25.3959 47.8206 25.4692 C 48.2776 26.0313 48.7201 26.5954 49.1478 27.1606 C 49.2286 27.2675 49.3082 27.375 49.388 27.4819 C 49.5867 27.7481 49.7838 28.0133 49.9759 28.2798 C 51.9465 24.7266 53.1942 21.3725 53.7034 18.5259 C 54.3131 15.1176 53.8094 12.8619 52.7952 11.644 L 52.5862 11.4146"/></svg>
