<?xml version="1.0" encoding="UTF-8" standalone="yes"?><svg fill="none" xmlns="http://www.w3.org/2000/svg" xmlns:xlink="http://www.w3.org/1999/xlink" version="1.2" baseProfile="tiny" x="0" y="0" width="64" height="64" viewBox="0 0 64 64"><defs><linearGradient id="wps{ce767a7f-8242-46fe-b668-f3616e5da4c3}_solid@Accent1_1.00@Accent1_1.00" x1="0" y1="0.5" x2="1" y2="0.5" spreadMethod="pad" gradientUnits="userSpaceOnUse"><stop offset="0" stop-color="#ffffff" stop-opacity="1"/><stop offset="1" stop-color="#ffffff" stop-opacity="1"/></linearGradient></defs><defs/><path fill="url(#wps{ce767a7f-8242-46fe-b668-f3616e5da4c3}_solid@Accent1_1.00@Accent1_1.00)" fill-opacity="1" d="M 58 28.0001 C 60.0614 28.0001 62.1805 26.3079 61.9941 23.8488 C 61.1429 12.6269 53.4919 3.16351 40.7421 2.0509 L 40.1308 2.00403 L 39.9062 1.99524 C 37.6042 1.97455 36 3.98662 36 6.00012 L 36 25.5997 C 36.0001 26.9252 37.0751 28.0001 38.4003 28.0001 L 58 28.0001 M 30 61.9991 C 44.6839 61.9991 56.8005 50.5216 57.9931 36.1652 C 58.09 34.999 57.6946 33.9001 56.8789 33.1115 C 56.0879 32.3469 55.0373 32.0001 54 32.0001 L 32 32.0001 L 32 9.99915 C 31.9999 8.96157 31.6522 7.91102 30.8876 7.12024 C 30.0989 6.3046 29.0001 5.90912 27.8339 6.00598 C 13.4774 7.19862 1.99995 19.3162 1.99995 34.0001 C 2.00024 49.4639 14.5362 61.9991 30 61.9991 M 40 24.0001 L 40 6.005 C 50.7717 6.76886 57.2086 14.4647 57.9931 24.0001 L 40 24.0001 M 30 57.9991 C 16.7452 57.9991 6.00024 47.2547 5.99995 34.0001 C 5.99995 21.4908 15.7567 11.1104 28 10.0079 L 28 33.5665 C 28.0001 34.9103 29.0897 36.0001 30.4335 36.0001 L 53.9912 36.0001 C 52.8882 48.243 42.5089 57.9991 30 57.9991"/></svg>
