<?xml version="1.0" encoding="UTF-8" standalone="yes"?><svg xmlns="http://www.w3.org/2000/svg" xmlns:xlink="http://www.w3.org/1999/xlink" version="1.2" baseProfile="tiny" x="0" y="0" width="15" height="20" viewBox="0 0 15 20.625"><defs/><path fill="#d59134" d="M 11.4531 15 C 11.7188 14.1406 12.3125 13.3594 12.9375 12.6563 C 14.2188 11.3281 15 9.48438 15 7.5 C 15 3.35938 11.6406 0 7.5 0 C 3.35938 0 0 3.35938 0 7.5 C 0 9.48438 0.78125 11.3281 2.07813 12.6563 C 2.70313 13.3594 3.28125 14.1406 3.5625 15 L 11.4531 15 M 11.25 16.875 L 3.75 16.875 L 3.75 17.5 C 3.75 19.2188 5.15625 20.625 6.875 20.625 L 8.125 20.625 C 9.84375 20.625 11.25 19.2188 11.25 17.5 L 11.25 16.875 M 7.1875 4.375 C 5.625 4.375 4.375 5.625 4.375 7.1875 C 4.375 7.6875 3.95313 8.125 3.4375 8.125 C 2.9375 8.125 2.5 7.6875 2.5 7.1875 C 2.5 4.60938 4.60938 2.5 7.1875 2.5 C 7.70313 2.5 8.125 2.92188 8.125 3.4375 C 8.125 3.9375 7.70313 4.375 7.1875 4.375"/></svg>
