<?xml version="1.0" encoding="UTF-8" standalone="yes"?><svg xmlns="http://www.w3.org/2000/svg" xmlns:xlink="http://www.w3.org/1999/xlink" version="1.2" baseProfile="tiny" x="0" y="0" width="20" height="17" viewBox="0 0 20 17.5"><defs/><path fill="#d59134" d="M 2.5 1.25 C 2.5 0.546875 1.95313 0 1.25 0 C 0.546875 0 0 0.546875 0 1.25 L 0 14.375 C 0 16.0938 1.40625 17.5 3.125 17.5 L 18.75 17.5 C 19.4531 17.5 20 16.9531 20 16.25 C 20 15.5469 19.4531 15 18.75 15 L 3.125 15 C 2.78125 15 2.5 14.7188 2.5 14.375 L 2.5 1.25 M 18.4063 4.64063 C 18.875 4.14063 18.875 3.35938 18.4063 2.84375 C 17.8906 2.375 17.1094 2.375 16.6094 2.84375 L 12.5 6.98438 L 10.2813 4.71875 C 9.76563 4.25 8.98438 4.25 8.48438 4.71875 L 4.73438 8.46875 C 4.26563 8.98438 4.26563 9.76563 4.73438 10.2656 C 5.23438 10.7344 6.01563 10.7344 6.53125 10.2656 L 9.375 7.375 L 11.6094 9.64063 C 12.1094 10.1094 12.8906 10.1094 13.4063 9.64063 L 18.4063 4.64063"/></svg>
