<?xml version="1.0" encoding="UTF-8" standalone="yes"?><svg xmlns="http://www.w3.org/2000/svg" xmlns:xlink="http://www.w3.org/1999/xlink" version="1.2" baseProfile="tiny" x="0" y="0" width="17" height="17" viewBox="0 0 17.3281 17.3281"><defs/><path fill="#837b74" d="M 2.23438 7.75 C 2.67188 4.59375 5.375 2.15625 8.67188 2.15625 C 10.4531 2.15625 12.0781 2.90625 13.2656 4.0625 C 13.2656 4.0625 13.2656 4.09375 13.2656 4.09375 L 13.5313 4.32813 L 11.9063 4.32813 C 11.2969 4.32813 10.8281 4.79688 10.8281 5.40625 C 10.8281 6.01563 11.2969 6.48438 11.9063 6.48438 L 16.25 6.48438 C 16.8594 6.48438 17.3281 6.01563 17.3281 5.40625 L 17.3281 1.07813 C 17.3281 0.46875 16.8594 0 16.25 0 C 15.6406 0 15.1563 0.46875 15.1563 1.07813 L 15.1563 2.875 L 14.7969 2.53125 C 13.2344 0.96875 11.0625 0 8.67188 0 C 4.29688 0 0.671875 3.20313 0.09375 7.4375 C 0 8.01563 0.40625 8.5625 1.01563 8.65625 C 1.59375 8.71875 2.125 8.3125 2.23438 7.75 M 17.2344 9.90625 C 17.3281 9.29688 16.9219 8.76563 16.3125 8.65625 C 15.7344 8.59375 15.2031 9 15.0938 9.57813 C 14.6563 12.7188 11.9531 15.1563 8.67188 15.1563 C 6.875 15.1563 5.25 14.4063 4.0625 13.2656 C 4.0625 13.2656 4.0625 13.2344 4.0625 13.2344 L 3.79688 12.9844 L 5.42188 12.9844 C 6.03125 12.9844 6.5 12.5156 6.5 11.9063 C 6.5 11.2969 6.03125 10.8281 5.42188 10.8281 L 1.07813 10.8281 C 0.8125 10.8281 0.5 10.9219 0.296875 11.1563 C 0.09375 11.3594 0 11.6406 0 11.9063 L 0.03125 16.2031 C 0.03125 16.8125 0.546875 17.2813 1.10938 17.2813 C 1.71875 17.2813 2.20313 16.7813 2.20313 16.2031 L 2.20313 14.4531 L 2.53125 14.7813 C 4.125 16.3438 6.29688 17.3281 8.67188 17.3281 C 13.0313 17.3281 16.6563 14.1094 17.2344 9.90625"/></svg>
