<?xml version="1.0" encoding="UTF-8" standalone="yes"?><svg xmlns="http://www.w3.org/2000/svg" xmlns:xlink="http://www.w3.org/1999/xlink" version="1.2" baseProfile="tiny" x="0" y="0" width="24" height="20" viewBox="0 0 24.9634 20"><defs/><path fill="#8d624f" d="M 14.9973 1.25 L 19.9973 1.25 C 20.7005 1.25 21.2473 1.79688 21.2473 2.5 C 21.2473 3.20313 20.7005 3.75 19.9973 3.75 L 15.5442 3.75 C 15.3567 4.76563 14.6848 5.57813 13.7473 5.96875 L 13.7473 17.5 L 19.9973 17.5 C 20.7005 17.5 21.2473 18.0469 21.2473 18.75 C 21.2473 19.4531 20.7005 20 19.9973 20 L 4.99734 20 C 4.29422 20 3.74734 19.4531 3.74734 18.75 C 3.74734 18.0469 4.29422 17.5 4.99734 17.5 L 11.2473 17.5 L 11.2473 5.96875 C 10.3567 5.57813 9.65359 4.76563 9.45047 3.75 L 4.99734 3.75 C 4.29422 3.75 3.74734 3.20313 3.74734 2.5 C 3.74734 1.79688 4.29422 1.25 4.99734 1.25 L 9.99734 1.25 C 10.5911 0.5 11.4817 0 12.4973 0 C 13.513 0 14.4192 0.5 14.9973 1.25 M 17.1848 12.5 L 22.8098 12.5 L 19.9973 7.65625 L 17.1848 12.5 M 19.9973 16.25 C 17.5442 16.25 15.513 14.9219 15.0755 13.1563 C 14.9661 12.7344 15.1223 12.2969 15.3567 11.9063 L 19.0598 5.54688 C 19.263 5.1875 19.6067 5 19.9973 5 C 20.388 5 20.7473 5.1875 20.9348 5.54688 L 24.6536 11.9063 C 24.888 12.2969 25.0442 12.7344 24.9192 13.1563 C 24.4973 14.9219 22.4661 16.25 19.9973 16.25 M 4.96609 7.65625 L 2.10672 12.5 L 7.77859 12.5 L 4.96609 7.65625 M 0.0442173 13.1563 C -0.0807827 12.7344 0.0754673 12.2969 0.309842 11.9063 L 4.02859 5.54688 C 4.21609 5.1875 4.57547 5 4.96609 5 C 5.35672 5 5.70047 5.1875 5.90359 5.54688 L 9.60672 11.9063 C 9.84109 12.2969 9.99734 12.7344 9.88797 13.1563 C 9.45047 14.9219 7.41922 16.25 4.96609 16.25 C 2.49734 16.25 0.466092 14.9219 0.0442173 13.1563"/></svg>
