<?xml version="1.0" encoding="UTF-8" standalone="yes"?><svg xmlns="http://www.w3.org/2000/svg" xmlns:xlink="http://www.w3.org/1999/xlink" version="1.2" baseProfile="tiny" x="0" y="0" width="15" height="20" viewBox="0 0 15 20"><defs/><path fill="#8d624f" d="M 12.1563 1.25 L 12.5 1.25 C 13.875 1.25 15 2.375 15 3.75 L 15 17.5 C 15 18.875 13.875 20 12.5 20 L 2.5 20 C 1.14063 20 0 18.875 0 17.5 L 0 3.75 C 0 2.375 1.14063 1.25 2.5 1.25 L 2.85938 1.25 C 3.28125 0.5 4.0625 0 5 0 L 10 0 C 10.9375 0 11.7188 0.5 12.1563 1.25 M 9.6875 4.375 C 10.2031 4.375 10.625 3.9375 10.625 3.4375 C 10.625 2.92188 10.2031 2.5 9.6875 2.5 L 5.3125 2.5 C 4.8125 2.5 4.375 2.92188 4.375 3.4375 C 4.375 3.9375 4.8125 4.375 5.3125 4.375 L 9.6875 4.375 M 5 10 C 5 9.29688 4.45313 8.75 3.75 8.75 C 3.04688 8.75 2.5 9.29688 2.5 10 C 2.5 10.7031 3.04688 11.25 3.75 11.25 C 4.45313 11.25 5 10.7031 5 10 M 6.25 10 C 6.25 10.5 6.6875 10.9375 7.1875 10.9375 L 11.5625 10.9375 C 12.0781 10.9375 12.5 10.5 12.5 10 C 12.5 9.48438 12.0781 9.0625 11.5625 9.0625 L 7.1875 9.0625 C 6.6875 9.0625 6.25 9.48438 6.25 10 M 6.25 15 C 6.25 15.5 6.6875 15.9375 7.1875 15.9375 L 11.5625 15.9375 C 12.0781 15.9375 12.5 15.5 12.5 15 C 12.5 14.4844 12.0781 14.0625 11.5625 14.0625 L 7.1875 14.0625 C 6.6875 14.0625 6.25 14.4844 6.25 15 M 3.75 16.25 C 4.45313 16.25 5 15.7031 5 15 C 5 14.2969 4.45313 13.75 3.75 13.75 C 3.04688 13.75 2.5 14.2969 2.5 15 C 2.5 15.7031 3.04688 16.25 3.75 16.25"/></svg>
