<?xml version="1.0" encoding="UTF-8" standalone="yes"?><svg xmlns="http://www.w3.org/2000/svg" xmlns:xlink="http://www.w3.org/1999/xlink" version="1.2" baseProfile="tiny" x="0" y="0" width="21" height="18" viewBox="0 0 21 18.0781"><defs/><path fill="#8d624f" d="M 2.32813 4.07813 C 2.32813 1.8125 4.15625 0 6.42188 0 C 8.67188 0 10.5 1.8125 10.5 4.07813 C 10.5 6.34375 8.67188 8.17188 6.42188 8.17188 C 4.15625 8.17188 2.32813 6.34375 2.32813 4.07813 M 0 16.3281 C 0 12.7969 2.875 9.92188 6.42188 9.92188 C 9.95313 9.92188 12.8438 12.7969 12.8438 16.3281 L 12.8438 16.5469 C 12.8438 17.3906 12.1406 18.0781 11.3125 18.0781 L 1.53125 18.0781 C 0.6875 18.0781 0 17.3906 0 16.5469 L 0 16.3281 M 15.75 1.75 C 17.6875 1.75 19.25 3.3125 19.25 5.25 C 19.25 7.1875 17.6875 8.75 15.75 8.75 C 13.8281 8.75 12.25 7.1875 12.25 5.25 C 12.25 3.3125 13.8281 1.75 15.75 1.75 M 15.75 10.5 C 18.6719 10.5 21 12.875 21 15.75 L 21 16.5469 C 21 17.3906 20.3125 18.0781 19.4688 18.0781 L 14.2188 18.0781 C 14.4375 17.6406 14.5938 17.0938 14.5938 16.5469 L 14.5938 16.3281 C 14.5938 14.4688 13.9688 12.7188 12.9063 11.3438 C 13.7188 10.8281 14.7031 10.5 15.75 10.5"/></svg>
