<?xml version="1.0" encoding="UTF-8" standalone="yes"?><svg xmlns="http://www.w3.org/2000/svg" xmlns:xlink="http://www.w3.org/1999/xlink" version="1.2" baseProfile="tiny" x="0" y="0" width="14" height="18" viewBox="0 0 14 18.6719"><defs/><path fill="#8d624f" d="M 0 2.34375 C 0 1.0625 1.0625 0 2.32813 0 L 7.79688 0 C 8.42188 0 9 0.265625 9.45313 0.703125 L 13.3125 4.5625 C 13.75 5 14 5.625 14 6.23438 L 14 16.3438 C 14 17.625 12.9531 18.6719 11.6719 18.6719 L 2.32813 18.6719 C 1.0625 18.6719 0 17.625 0 16.3438 L 0 2.34375 M 7.57813 2.15625 L 7.57813 5.54688 C 7.57813 6.01563 7.98438 6.42188 8.45313 6.42188 L 11.8906 6.42188 L 7.57813 2.15625 M 5.82813 10.2188 L 5.82813 11.6719 L 4.375 11.6719 C 4.04688 11.6719 3.79688 11.9375 3.79688 12.2656 L 3.79688 13.4219 C 3.79688 13.75 4.04688 14.0156 4.375 14.0156 L 5.82813 14.0156 L 5.82813 15.4688 C 5.82813 15.7969 6.09375 16.0469 6.42188 16.0469 L 7.57813 16.0469 C 7.90625 16.0469 8.17188 15.7969 8.17188 15.4688 L 8.17188 14.0156 L 9.625 14.0156 C 9.95313 14.0156 10.2188 13.75 10.2188 13.4219 L 10.2188 12.2656 C 10.2188 11.9375 9.95313 11.6719 9.625 11.6719 L 8.17188 11.6719 L 8.17188 10.2188 C 8.17188 9.89063 7.90625 9.64063 7.57813 9.64063 L 6.42188 9.64063 C 6.09375 9.64063 5.82813 9.89063 5.82813 10.2188"/></svg>
