<?xml version="1.0" encoding="UTF-8" standalone="yes"?><svg xmlns="http://www.w3.org/2000/svg" xmlns:xlink="http://www.w3.org/1999/xlink" version="1.2" baseProfile="tiny" x="0" y="0" width="20" height="20" viewBox="0 0 20.0025 20"><defs/><path fill="#8d624f" d="M 15.7837 0 C 16.5337 0 17.2681 0.3125 17.7837 0.8125 L 19.19 2.21875 C 19.69 2.73438 20.0025 3.46875 20.0025 4.21875 C 20.0025 4.95313 19.69 5.70313 19.19 6.20313 L 17.4243 7.96875 L 12.0337 2.57813 L 13.7993 0.8125 C 14.2993 0.3125 15.0493 0 15.7837 0 M 2.31497 12.2969 L 10.7056 3.90625 L 16.0962 9.29688 L 7.70559 17.7031 C 7.26809 18.125 6.76809 18.4375 6.17434 18.5938 L 1.17434 19.9688 C 0.861843 20.0469 0.518093 19.9688 0.283718 19.7344 C 0.0493431 19.5 -0.0756569 19.1406 0.0493431 18.8281 L 1.40872 13.8281 C 1.61184 13.2344 1.87747 12.7344 2.31497 12.2969 M 8.79934 3.15625 L 3.17434 8.78125 L 0.471218 6.09375 C -0.153782 5.5 -0.153782 4.48438 0.471218 3.90625 L 3.90872 0.46875 C 4.50247 -0.15625 5.51809 -0.15625 6.09622 0.46875 L 6.33059 0.703125 L 4.14309 2.89063 C 3.83059 3.20313 3.83059 3.67188 4.14309 3.98438 C 4.45559 4.29688 4.92434 4.29688 5.23684 3.98438 L 7.47122 1.79688 L 8.79934 3.15625 M 16.8462 11.2031 L 18.2056 12.5781 L 16.0181 14.7656 C 15.7056 15.0781 15.7056 15.5469 16.0181 15.8594 C 16.3306 16.1719 16.7993 16.1719 17.1118 15.8594 L 19.2993 13.6719 L 19.5337 13.9063 C 20.1587 14.4844 20.1587 15.5 19.5337 16.0938 L 16.0962 19.5313 C 15.5181 20.1563 14.5025 20.1563 13.9087 19.5313 L 11.2212 16.8281 L 16.8462 11.2031"/></svg>
