<?xml version="1.0" encoding="UTF-8" standalone="yes"?><svg xmlns="http://www.w3.org/2000/svg" xmlns:xlink="http://www.w3.org/1999/xlink" version="1.2" baseProfile="tiny" x="0" y="0" width="20" height="20" viewBox="0 0 20 20.0234"><defs/><path fill="#8d624f" d="M 9.10938 0.199219 C 9.65625 -0.0664063 10.3594 -0.0664063 10.9375 0.199219 L 19.4531 4.15234 C 19.8125 4.30859 20 4.65234 20 5.01172 C 20 5.35547 19.8125 5.71484 19.4531 5.87109 L 10.9375 9.80859 C 10.3594 10.0898 9.65625 10.0898 9.10938 9.80859 L 0.546875 5.87109 C 0.203125 5.71484 0 5.35547 0 5.01172 C 0 4.65234 0.203125 4.30859 0.546875 4.15234 L 9.10938 0.199219 M 1.875 8.52734 L 8.28125 11.4961 C 9.375 11.9961 10.625 11.9961 11.7188 11.4961 L 18.125 8.52734 L 19.4531 9.15234 C 19.8125 9.30859 20 9.65234 20 10.0117 C 20 10.3555 19.8125 10.7148 19.4531 10.8711 L 10.9375 14.8086 C 10.3594 15.0898 9.65625 15.0898 9.10938 14.8086 L 0.546875 10.8711 C 0.203125 10.7148 0 10.3555 0 10.0117 C 0 9.65234 0.203125 9.30859 0.546875 9.15234 L 1.875 8.52734 M 0.546875 14.1523 L 1.875 13.5273 L 8.28125 16.4961 C 9.375 16.9961 10.625 16.9961 11.7188 16.4961 L 18.125 13.5273 L 19.4531 14.1523 C 19.8125 14.3086 20 14.6523 20 15.0117 C 20 15.3555 19.8125 15.7148 19.4531 15.8711 L 10.9063 19.8242 C 10.3594 20.0898 9.65625 20.0898 9.0625 19.8242 L 0.546875 15.8711 C 0.203125 15.7148 0 15.3555 0 15.0117 C 0 14.6523 0.203125 14.3086 0.546875 14.1523"/></svg>
