<?xml version="1.0" encoding="UTF-8" standalone="yes"?><svg xmlns="http://www.w3.org/2000/svg" xmlns:xlink="http://www.w3.org/1999/xlink" version="1.2" baseProfile="tiny" x="0" y="0" width="20" height="24" viewBox="0 0 20.5781 24.9375"><defs/><path fill="#8d624f" d="M 10.2813 11.875 C 7.01563 11.875 4.34375 9.20313 4.34375 5.9375 C 4.34375 2.67188 7.01563 0 10.2813 0 C 13.5469 0 16.2188 2.67188 16.2188 5.9375 C 16.2188 9.20313 13.5469 11.875 10.2813 11.875 M 8.79688 14.6406 L 11.8125 14.6406 C 12.2656 14.6406 12.6563 15.0313 12.6563 15.5313 C 12.6563 15.7344 12.6094 15.9219 12.4531 16.0781 L 11.0781 17.6563 L 12.6094 23.3438 L 12.6563 23.3438 L 14.3906 16.5156 C 14.4844 16.0781 14.9375 15.8281 15.3281 15.9844 C 18.3906 17.1094 20.5781 20.0781 20.5781 23.5938 C 20.5781 24.3438 19.9844 24.9375 19.2344 24.9375 L 1.32813 24.9375 C 0.59375 24.9375 0 24.3438 0 23.5938 C 0 20.0781 2.17188 17.1094 5.23438 15.9844 C 5.64063 15.8281 6.07813 16.0781 6.17188 16.5156 L 7.90625 23.3438 L 7.95313 23.3438 L 9.5 17.6563 L 8.10938 16.0781 C 8.01563 15.9219 7.90625 15.7344 7.90625 15.5313 C 7.90625 15.0313 8.3125 14.6406 8.79688 14.6406"/></svg>
