<?xml version="1.0" encoding="UTF-8" standalone="yes"?><svg xmlns="http://www.w3.org/2000/svg" xmlns:xlink="http://www.w3.org/1999/xlink" version="1.2" baseProfile="tiny" x="0" y="0" width="42" height="30" viewBox="0 0 42 30"><defs/><path fill="#8d624f" d="M 42 18.75 C 42 24.9375 36.9375 30 30.75 30 L 30 30 C 28.3125 30 27 28.6875 27 27 C 27 25.3125 28.3125 24 30 24 L 30.75 24 C 33.6563 24 36 21.6563 36 18.75 L 36 18 L 30 18 C 26.7188 18 24 15.2813 24 12 L 24 6 C 24 2.71875 26.7188 0 30 0 L 36 0 C 39.2813 0 42 2.71875 42 6 L 42 18.75 M 18 18.75 C 18 24.9375 12.9375 30 6.75 30 L 6 30 C 4.3125 30 3 28.6875 3 27 C 3 25.3125 4.3125 24 6 24 L 6.75 24 C 9.65625 24 12 21.6563 12 18.75 L 12 18 L 6 18 C 2.71875 18 0 15.2813 0 12 L 0 6 C 0 2.71875 2.71875 0 6 0 L 12 0 C 15.2813 0 18 2.71875 18 6 L 18 18.75"/></svg>
