<?xml version="1.0" encoding="UTF-8" standalone="yes"?><svg xmlns="http://www.w3.org/2000/svg" xmlns:xlink="http://www.w3.org/1999/xlink" version="1.2" baseProfile="tiny" x="0" y="0" width="20" height="18" viewBox="0 0 20 18.75"><defs/><path fill="#8d624f" d="M 12.5781 2.6875 C 12.8594 2.1875 13.4063 1.875 13.9844 1.875 L 14.0625 1.875 C 14.9219 1.875 15.625 2.57813 15.625 3.4375 C 15.625 4.29688 14.9219 5 14.0625 5 L 11.2188 5 L 12.5781 2.6875 M 7.46875 2.6875 L 8.79688 5 L 5.9375 5 C 5.07813 5 4.375 4.29688 4.375 3.4375 C 4.375 2.57813 5.07813 1.875 5.9375 1.875 L 6.01563 1.875 C 6.60938 1.875 7.15625 2.1875 7.46875 2.6875 M 10.9375 1.75 L 10 3.35938 L 9.0625 1.75 C 8.4375 0.65625 7.26563 0 6.01563 0 L 5.9375 0 C 4.03125 0 2.5 1.51563 2.5 3.4375 C 2.5 3.98438 2.65625 4.53125 2.89063 5 L 1.25 5 C 0.546875 5 0 5.54688 0 6.25 L 0 7.5 C 0 8.20313 0.546875 8.75 1.25 8.75 L 18.75 8.75 C 19.4531 8.75 20 8.20313 20 7.5 L 20 6.25 C 20 5.54688 19.4531 5 18.75 5 L 17.1094 5 C 17.3906 4.53125 17.5 3.98438 17.5 3.4375 C 17.5 1.51563 15.9844 0 14.0625 0 L 13.9844 0 C 12.7344 0 11.5625 0.65625 10.9375 1.71875 L 10.9375 1.75 M 18.75 10.625 L 10.9375 10.625 L 10.9375 18.75 L 16.25 18.75 C 17.625 18.75 18.75 17.625 18.75 16.25 L 18.75 10.625 M 9.0625 10.625 L 1.25 10.625 L 1.25 16.25 C 1.25 17.625 2.39063 18.75 3.75 18.75 L 9.0625 18.75 L 9.0625 10.625"/></svg>
