<?xml version="1.0" encoding="UTF-8" standalone="yes"?><svg xmlns="http://www.w3.org/2000/svg" xmlns:xlink="http://www.w3.org/1999/xlink" version="1.2" baseProfile="tiny" x="0" y="0" width="22" height="20" viewBox="0 0 22.503 20.625"><defs/><path fill="#8d624f" d="M 11.25 0 C 10.75 0 10.3125 0.421875 10.3125 0.9375 L 10.3125 1.40625 L 10.2344 1.40625 C 8.82813 1.40625 7.65625 2.57813 7.65625 3.98438 C 7.65625 5.3125 8.64063 6.40625 9.92188 6.5625 L 12.3125 6.875 C 12.5 6.875 12.6563 7.0625 12.6563 7.26563 C 12.6563 7.45313 12.4688 7.65625 12.2656 7.65625 L 9.375 7.65625 C 8.79688 7.65625 8.28125 8.15625 8.28125 8.75 C 8.28125 9.375 8.79688 9.84375 9.375 9.84375 L 10.3125 9.84375 L 10.3125 10.3125 C 10.3125 10.8125 10.75 11.25 11.25 11.25 C 11.7656 11.25 12.1875 10.8125 12.1875 10.3125 L 12.1875 9.84375 L 12.2656 9.84375 C 13.6719 9.84375 14.8438 8.67188 14.8438 7.26563 C 14.8438 5.9375 13.875 4.84375 12.5781 4.6875 L 10.2031 4.40625 C 10 4.375 9.84375 4.21875 9.84375 3.98438 C 9.84375 3.78125 10.0469 3.59375 10.2344 3.59375 L 12.8125 3.59375 C 13.4375 3.59375 13.9063 3.125 13.9063 2.5 C 13.9063 1.90625 13.4375 1.40625 12.8125 1.40625 L 12.1875 1.40625 L 12.1875 0.9375 C 12.1875 0.421875 11.7656 0 11.25 0 M 4.26563 13.9844 L 2.625 15.625 L 1.25 15.625 C 0.546875 15.625 0 16.1719 0 16.875 L 0 19.375 C 0 20.0781 0.546875 20.625 1.25 20.625 L 13.7969 20.625 C 14.9219 20.625 16.0156 20.2813 16.9219 19.6094 L 21.875 15.9375 C 22.5781 15.4219 22.7031 14.4531 22.1875 13.75 C 21.6875 13.0781 20.7031 12.9219 20 13.4375 L 15.3594 16.875 L 10.9375 16.875 C 10.4375 16.875 10 16.4375 10 15.9375 C 10 15.4219 10.4375 15 10.9375 15 L 13.75 15 C 14.4531 15 15 14.4531 15 13.75 C 15 13.0469 14.4531 12.5 13.75 12.5 L 7.8125 12.5 C 6.48438 12.5 5.20313 13.0469 4.26563 13.9844"/></svg>
