<?xml version="1.0" encoding="UTF-8" standalone="yes"?><svg xmlns="http://www.w3.org/2000/svg" xmlns:xlink="http://www.w3.org/1999/xlink" version="1.2" baseProfile="tiny" x="0" y="0" width="24" height="24" viewBox="0 0 24 24"><defs/><path fill="#8d624f" d="M 12 24 C 18.6094 24 24 18.6094 24 12 C 24 5.39063 18.6094 0 12 0 C 5.39063 0 0 5.39063 0 12 C 0 18.6094 5.39063 24 12 24 M 10.5 7.5 C 10.5 6.65625 11.1563 6 12 6 C 12.8438 6 13.5 6.65625 13.5 7.5 C 13.5 8.34375 12.8438 9 12 9 C 11.1563 9 10.5 8.34375 10.5 7.5 M 10.125 10.5 L 12.375 10.5 C 12.9844 10.5 13.5 11.0156 13.5 11.625 L 13.5 15.75 L 13.875 15.75 C 14.4844 15.75 15 16.2656 15 16.875 C 15 17.4844 14.4844 18 13.875 18 L 10.125 18 C 9.51563 18 9 17.4844 9 16.875 C 9 16.2656 9.51563 15.75 10.125 15.75 L 11.25 15.75 L 11.25 12.75 L 10.125 12.75 C 9.51563 12.75 9 12.2344 9 11.625 C 9 11.0156 9.51563 10.5 10.125 10.5"/></svg>
