<?xml version="1.0" encoding="UTF-8" standalone="yes"?><svg xmlns="http://www.w3.org/2000/svg" xmlns:xlink="http://www.w3.org/1999/xlink" version="1.2" baseProfile="tiny" x="0" y="0" width="25" height="25" viewBox="0 0 25.8984 25.5"><defs/><path fill="#8d624f" d="M 0 3 C 0 1.35938 1.35938 0 3 0 L 10.0313 0 C 10.8281 0 11.5781 0.328125 12.1406 0.890625 L 17.1094 5.85938 C 17.6719 6.42188 18 7.21875 18 8.01563 L 18 12.5625 L 11.8125 18.75 L 9.84375 18.75 L 9.09375 16.2656 C 8.85938 15.5156 8.20313 15 7.40625 15 C 6.89063 15 6.375 15.2344 6.04688 15.6563 L 3.23438 19.1719 C 2.85938 19.6406 2.95313 20.3906 3.42188 20.7656 C 3.89063 21.1406 4.64063 21.0469 5.01563 20.5781 L 7.21875 17.8125 L 7.92188 20.2031 C 8.0625 20.6719 8.48438 21 9 21 L 10.5 21 C 10.4531 21.1406 10.4063 21.2813 10.3594 21.4219 L 9.84375 24 L 3 24 C 1.35938 24 0 22.6406 0 21 L 0 3 M 9.75 2.76563 L 9.75 7.125 C 9.75 7.73438 10.2656 8.25 10.875 8.25 L 15.2813 8.25 L 9.75 2.76563 M 12.5625 21.8906 C 12.7031 21.3281 12.9844 20.7656 13.4063 20.3438 L 18.9844 14.7656 L 22.7344 18.5156 L 17.1563 24.0938 C 16.7344 24.5156 16.2188 24.7969 15.6094 24.9375 L 12.8438 25.5 C 12.7969 25.5 12.75 25.5 12.7031 25.5 C 12.3281 25.5 12 25.1719 12 24.7969 C 12 24.75 12 24.7031 12 24.6563 L 12.5625 21.8906 M 25.125 16.125 L 23.7656 17.4844 L 20.0156 13.7344 L 21.375 12.375 C 22.4063 11.3438 24.0938 11.3438 25.125 12.375 C 26.1563 13.4063 26.1563 15.0938 25.125 16.125"/></svg>
