<?xml version="1.0" encoding="UTF-8" standalone="yes"?><svg xmlns="http://www.w3.org/2000/svg" xmlns:xlink="http://www.w3.org/1999/xlink" version="1.2" baseProfile="tiny" x="0" y="0" width="19" height="27" viewBox="0 0 19.1198 27"><defs/><path fill="#8d624f" d="M 8.99477 0 C 10.4479 0 11.6198 1.17188 11.6198 2.625 C 11.6198 4.07813 10.4479 5.25 8.99477 5.25 C 7.54164 5.25 6.36977 4.07813 6.36977 2.625 C 6.36977 1.17188 7.54164 0 8.99477 0 M 4.86977 12.6094 L 2.71352 15.5156 C 2.19789 16.1719 1.26039 16.3125 0.604143 15.8438 C -0.0521066 15.3281 -0.192732 14.3906 0.276018 13.7344 L 3.60414 9.28125 C 4.77602 7.6875 6.65102 6.75 8.61977 6.75 C 10.5885 6.75 12.4635 7.6875 13.6354 9.28125 L 16.9635 13.7344 C 17.4323 14.3906 17.2916 15.3281 16.6354 15.8438 C 15.9791 16.3125 15.0416 16.1719 14.526 15.5156 L 12.3698 12.6094 L 12.3698 25.5 C 12.3698 26.3438 11.7135 27 10.8698 27 C 10.026 27 9.36977 26.3438 9.36977 25.5 L 9.36977 18 C 9.36977 17.5781 9.04164 17.25 8.61977 17.25 C 8.19789 17.25 7.86977 17.5781 7.86977 18 L 7.86977 25.5 C 7.86977 26.3438 7.21352 27 6.36977 27 C 5.52602 27 4.86977 26.3438 4.86977 25.5 L 4.86977 12.6094 M 16.4948 19.5 C 16.3073 19.5 16.1198 19.6875 16.1198 19.875 C 16.1198 20.4844 15.6041 21 14.9948 21 C 14.3854 21 13.8698 20.4844 13.8698 19.875 C 13.8698 18.4219 15.0416 17.25 16.4948 17.25 C 17.9479 17.25 19.1198 18.4219 19.1198 19.875 L 19.1198 25.875 C 19.1198 26.4844 18.6041 27 17.9948 27 C 17.3854 27 16.8698 26.4844 16.8698 25.875 L 16.8698 19.875 C 16.8698 19.6875 16.6823 19.5 16.4948 19.5"/></svg>
