<?xml version="1.0" encoding="UTF-8" standalone="yes"?><svg xmlns="http://www.w3.org/2000/svg" xmlns:xlink="http://www.w3.org/1999/xlink" version="1.2" baseProfile="tiny" x="0" y="0" width="20" height="20" viewBox="0 0 20 20"><defs/><path fill="#8d624f" d="M 20 3.75 C 20 5.70313 17.7031 8.625 16.6875 9.79688 C 16.5625 9.95313 16.3281 10.0313 16.1406 10 L 12.5 10 C 11.7969 10 11.25 10.5469 11.25 11.25 C 11.25 11.9531 11.7969 12.5 12.5 12.5 L 16.25 12.5 C 18.3281 12.5 20 14.1719 20 16.25 C 20 18.3281 18.3281 20 16.25 20 L 5.46875 20 C 5.78125 19.6094 6.21875 19.1094 6.64063 18.5625 C 6.875 18.25 7.10938 17.8906 7.39063 17.5 L 16.25 17.5 C 16.9531 17.5 17.5 16.9531 17.5 16.25 C 17.5 15.5469 16.9531 15 16.25 15 L 12.5 15 C 10.4375 15 8.75 13.3125 8.75 11.25 C 8.75 9.17188 10.4375 7.5 12.5 7.5 L 14.0625 7.5 C 13.25 6.28125 12.5 4.84375 12.5 3.75 C 12.5 1.67188 14.1875 0 16.25 0 C 18.3281 0 20 1.67188 20 3.75 M 4.57813 19.1094 C 4.42188 19.2656 4.29688 19.4219 4.1875 19.5313 L 4.10938 19.6094 C 3.875 19.8125 3.51563 19.7656 3.32813 19.5313 C 2.34375 18.4844 0 15.7344 0 13.75 C 0 11.6719 1.6875 10 3.75 10 C 5.82813 10 7.5 11.6719 7.5 13.75 C 7.5 14.9219 6.6875 16.3594 5.82813 17.5781 C 5.39063 18.1719 4.96875 18.6719 4.60938 19.0625 L 4.57813 19.1094 M 5 13.75 C 5 13.0469 4.45313 12.5 3.75 12.5 C 3.04688 12.5 2.5 13.0469 2.5 13.75 C 2.5 14.4531 3.04688 15 3.75 15 C 4.45313 15 5 14.4531 5 13.75 M 16.25 5 C 16.9531 5 17.5 4.45313 17.5 3.75 C 17.5 3.04688 16.9531 2.5 16.25 2.5 C 15.5469 2.5 15 3.04688 15 3.75 C 15 4.45313 15.5469 5 16.25 5"/></svg>
