<?xml version="1.0" encoding="UTF-8" standalone="yes"?><svg xmlns="http://www.w3.org/2000/svg" xmlns:xlink="http://www.w3.org/1999/xlink" version="1.2" baseProfile="tiny" x="0" y="0" width="24" height="22" viewBox="0 0 24 22.5"><defs/><path fill="#8d624f" d="M 1.5 2.25 C 0.65625 2.25 0 2.90625 0 3.75 C 0 4.59375 0.65625 5.25 1.5 5.25 L 5.57813 5.25 C 6.14063 6.5625 7.45313 7.5 9 7.5 C 10.5469 7.5 11.8594 6.5625 12.4219 5.25 L 22.5 5.25 C 23.3438 5.25 24 4.59375 24 3.75 C 24 2.90625 23.3438 2.25 22.5 2.25 L 12.4219 2.25 C 11.8594 0.9375 10.5469 0 9 0 C 7.45313 0 6.14063 0.9375 5.57813 2.25 L 1.5 2.25 M 1.5 9.75 C 0.65625 9.75 0 10.4063 0 11.25 C 0 12.0938 0.65625 12.75 1.5 12.75 L 13.0781 12.75 C 13.6406 14.0625 14.9531 15 16.5 15 C 18.0469 15 19.3594 14.0625 19.9219 12.75 L 22.5 12.75 C 23.3438 12.75 24 12.0938 24 11.25 C 24 10.4063 23.3438 9.75 22.5 9.75 L 19.9219 9.75 C 19.3594 8.4375 18.0469 7.5 16.5 7.5 C 14.9531 7.5 13.6406 8.4375 13.0781 9.75 L 1.5 9.75 M 1.5 17.25 C 0.65625 17.25 0 17.9063 0 18.75 C 0 19.5938 0.65625 20.25 1.5 20.25 L 4.07813 20.25 C 4.64063 21.5625 5.95313 22.5 7.5 22.5 C 9.04688 22.5 10.3594 21.5625 10.9219 20.25 L 22.5 20.25 C 23.3438 20.25 24 19.5938 24 18.75 C 24 17.9063 23.3438 17.25 22.5 17.25 L 10.9219 17.25 C 10.3594 15.9375 9.04688 15 7.5 15 C 5.95313 15 4.64063 15.9375 4.07813 17.25 L 1.5 17.25"/></svg>
