<?xml version="1.0" encoding="UTF-8" standalone="yes"?><svg xmlns="http://www.w3.org/2000/svg" xmlns:xlink="http://www.w3.org/1999/xlink" version="1.2" baseProfile="tiny" x="0" y="0" width="16" height="14" viewBox="0 0 16 14"><defs/><path fill="#8d624f" d="M 7.53125 1.71875 L 8 2.375 L 8.46875 1.71875 C 9.25 0.65625 10.5 0 11.8438 0 C 14.125 0 16 1.875 16 4.15625 L 16 4.25 C 16 7.75 11.625 11.8125 9.34375 13.5625 C 8.96875 13.8438 8.5 14 8 14 C 7.53125 14 7.03125 13.8438 6.65625 13.5625 C 4.375 11.8125 0 7.75 0 4.25 L 0 4.15625 C 0 1.875 1.875 0 4.15625 0 C 5.5 0 6.75 0.65625 7.53125 1.71875 Z"/></svg>
