<?xml version="1.0" encoding="UTF-8" standalone="yes"?><svg xmlns="http://www.w3.org/2000/svg" xmlns:xlink="http://www.w3.org/1999/xlink" version="1.2" baseProfile="tiny" x="0" y="0" width="29" height="24" viewBox="0 0 29.2704 24"><defs/><path fill="#8d624f" d="M 7.53172 0 C 9.17234 0 10.5317 1.35938 10.5317 3 C 10.5317 4.64063 9.17234 6 7.53172 6 C 5.84422 6 4.53172 4.64063 4.53172 3 C 4.53172 1.35938 5.84422 0 7.53172 0 M 4.15672 22.5 L 4.15672 18.75 L 3.31297 18.75 C 2.79734 18.75 2.42234 18.2344 2.60984 17.7656 L 4.06297 13.4063 L 2.70359 15.1406 C 2.18797 15.7969 1.25047 15.9375 0.594216 15.4688 C -0.0620345 14.9531 -0.202659 14.0156 0.312966 13.3594 L 3.07859 9.70313 C 4.10984 8.29688 5.75047 7.5 7.53172 7.5 C 9.26609 7.5 10.9067 8.29688 11.938 9.70313 L 14.7036 13.3594 C 15.2192 14.0156 15.0786 14.9531 14.4223 15.4688 C 13.7661 15.9375 12.8286 15.7969 12.313 15.1406 L 10.9536 13.4063 L 12.4067 17.7656 C 12.5942 18.2344 12.2192 18.75 11.7036 18.75 L 10.8598 18.75 L 10.8598 22.5 C 10.8598 23.3438 10.2036 24 9.35984 24 C 8.56297 24 7.85984 23.3438 7.85984 22.5 L 7.85984 18.75 L 7.10984 18.75 L 7.10984 22.5 C 7.10984 23.3438 6.45359 24 5.60984 24 C 4.81297 24 4.10984 23.3438 4.10984 22.5 L 4.15672 22.5 M 22.5317 0 C 24.1723 0 25.5317 1.35938 25.5317 3 C 25.5317 4.64063 24.1723 6 22.5317 6 C 20.8442 6 19.5317 4.64063 19.5317 3 C 19.5317 1.35938 20.8442 0 22.5317 0 M 22.1567 18 L 22.1567 22.5 C 22.1567 23.3438 21.4536 24 20.6567 24 C 19.813 24 19.1567 23.3438 19.1567 22.5 L 19.1567 14.1094 L 18.5473 15.0469 C 18.0786 15.75 17.1411 15.9375 16.4848 15.5156 C 15.7817 15.0938 15.5473 14.1563 16.0161 13.4531 L 18.4067 9.60938 C 19.2505 8.29688 20.7036 7.5 22.2036 7.5 L 22.813 7.5 C 24.3598 7.5 25.7661 8.29688 26.6098 9.60938 L 29.0473 13.4531 C 29.4692 14.1563 29.2817 15.0938 28.5786 15.5156 C 27.8755 15.9844 26.938 15.75 26.5161 15.0469 L 25.9067 14.1094 L 25.9067 22.5 C 25.9067 23.3438 25.2036 24 24.4067 24 C 23.563 24 22.9067 23.3438 22.9067 22.5 L 22.9067 18 L 22.1567 18"/></svg>
