<?xml version="1.0" encoding="UTF-8" standalone="yes"?><svg xmlns="http://www.w3.org/2000/svg" xmlns:xlink="http://www.w3.org/1999/xlink" version="1.2" baseProfile="tiny" x="0" y="0" width="21" height="21" viewBox="0 0 21.582 21.25"><defs/><path fill="#8d624f" d="M 0 2.5 C 0 1.125 1.14063 0 2.5 0 L 8.35938 0 C 9.03125 0 9.65625 0.265625 10.125 0.734375 L 14.2656 4.875 C 14.7344 5.34375 15 6.01563 15 6.67188 L 15 10.4688 L 9.84375 15.625 L 8.20313 15.625 L 7.57813 13.5469 C 7.39063 12.9219 6.84375 12.5 6.17188 12.5 C 5.75 12.5 5.3125 12.6875 5.04688 13.0469 L 2.70313 15.9688 C 2.39063 16.3594 2.46875 16.9844 2.85938 17.2969 C 3.25 17.625 3.875 17.5469 4.1875 17.1406 L 6.01563 14.8438 L 6.60938 16.8281 C 6.71875 17.2188 7.07813 17.5 7.5 17.5 L 8.75 17.5 C 8.71875 17.625 8.67188 17.7344 8.64063 17.8594 L 8.20313 20 L 2.5 20 C 1.14063 20 0 18.875 0 17.5 L 0 2.5 M 8.125 2.29688 L 8.125 5.9375 C 8.125 6.4375 8.5625 6.875 9.0625 6.875 L 12.7344 6.875 L 8.125 2.29688 M 10.4688 18.25 C 10.5938 17.7813 10.8281 17.2969 11.1719 16.9531 L 15.8281 12.2969 L 18.9531 15.4219 L 14.2969 20.0781 C 13.9531 20.4375 13.5156 20.6719 13.0156 20.7813 L 10.7031 21.25 C 10.6719 21.25 10.625 21.25 10.5938 21.25 C 10.2813 21.25 10 20.9844 10 20.6719 C 10 20.625 10 20.5938 10 20.5469 L 10.4688 18.25 M 20.9375 13.4375 L 19.8125 14.5625 L 16.6875 11.4375 L 17.8125 10.3125 C 18.6719 9.45313 20.0781 9.45313 20.9375 10.3125 C 21.7969 11.1719 21.7969 12.5781 20.9375 13.4375"/></svg>
