<?xml version="1.0" encoding="UTF-8" standalone="yes"?><svg xmlns="http://www.w3.org/2000/svg" xmlns:xlink="http://www.w3.org/1999/xlink" version="1.2" baseProfile="tiny" x="0" y="0" width="24" height="24" viewBox="0 0 24 24"><defs/><path fill="#8d624f" d="M 6 4.5 L 6 3.75 C 6 1.6875 10.0313 0 15 0 C 19.9688 0 24 1.6875 24 3.75 L 24 4.5 C 24 5.95313 22.0781 7.17188 19.2188 7.82813 C 19.125 7.6875 18.9844 7.54688 18.8906 7.45313 C 18.1406 6.70313 17.2031 6.1875 16.2188 5.76563 C 14.25 4.96875 11.7188 4.5 9 4.5 C 7.96875 4.5 6.98438 4.59375 6 4.6875 C 6 4.64063 6 4.59375 6 4.5 M 20.25 16.5469 L 20.25 14.3906 C 20.9531 14.2031 21.6094 13.9688 22.2188 13.7344 C 22.8281 13.4531 23.4375 13.1719 24 12.7969 L 24 13.5 C 24 14.7656 22.5469 15.8906 20.25 16.5469 M 20.25 12.0469 L 20.25 10.5 C 20.25 10.3125 20.25 10.0781 20.2031 9.89063 C 20.9531 9.70313 21.6094 9.46875 22.2188 9.23438 C 22.8281 8.95313 23.4375 8.67188 24 8.29688 L 24 9 C 24 10.2656 22.5469 11.3438 20.25 12.0469 M 0 11.25 L 0 10.5 C 0 8.4375 4.03125 6.75 9 6.75 C 13.9688 6.75 18 8.4375 18 10.5 L 18 11.25 C 18 13.3125 13.9688 15 9 15 C 4.03125 15 0 13.3125 0 11.25 M 18 15.75 C 18 17.8125 13.9688 19.5 9 19.5 C 4.03125 19.5 0 17.8125 0 15.75 L 0 15.0469 C 0.5625 15.4219 1.17188 15.7031 1.78125 15.9844 C 3.75 16.7813 6.28125 17.25 9 17.25 C 11.7188 17.25 14.25 16.7813 16.2188 15.9844 C 16.8281 15.7031 17.4375 15.4219 18 15.0469 L 18 15.75 M 18 19.5469 L 18 20.25 C 18 22.3125 13.9688 24 9 24 C 4.03125 24 0 22.3125 0 20.25 L 0 19.5469 C 0.5625 19.9219 1.17188 20.2031 1.78125 20.4844 C 3.75 21.2813 6.28125 21.75 9 21.75 C 11.7188 21.75 14.25 21.2813 16.2188 20.4844 C 16.8281 20.2031 17.4375 19.9219 18 19.5469"/></svg>
