<?xml version="1.0" encoding="UTF-8" standalone="yes"?><svg xmlns="http://www.w3.org/2000/svg" xmlns:xlink="http://www.w3.org/1999/xlink" version="1.2" baseProfile="tiny" x="0" y="0" width="18" height="18" viewBox="0 0 18.6719 18.6719"><defs/><path fill="#8d624f" d="M 9.34375 18.6719 C 14.4844 18.6719 18.6719 14.4844 18.6719 9.34375 C 18.6719 4.20313 14.4844 0 9.34375 0 C 4.1875 0 0 4.20313 0 9.34375 C 0 14.4844 4.1875 18.6719 9.34375 18.6719 M 8.17188 5.84375 C 8.17188 5.1875 8.67188 4.67188 9.34375 4.67188 C 10 4.67188 10.5 5.1875 10.5 5.84375 C 10.5 6.5 10 7 9.34375 7 C 8.67188 7 8.17188 6.5 8.17188 5.84375 M 7.875 8.17188 L 9.625 8.17188 C 10.1094 8.17188 10.5 8.57813 10.5 9.04688 L 10.5 12.2656 L 10.7969 12.2656 C 11.2656 12.2656 11.6719 12.6563 11.6719 13.1406 C 11.6719 13.6094 11.2656 14.0156 10.7969 14.0156 L 7.875 14.0156 C 7.40625 14.0156 7 13.6094 7 13.1406 C 7 12.6563 7.40625 12.2656 7.875 12.2656 L 8.75 12.2656 L 8.75 9.92188 L 7.875 9.92188 C 7.40625 9.92188 7 9.53125 7 9.04688 C 7 8.57813 7.40625 8.17188 7.875 8.17188"/></svg>
