<?xml version="1.0" encoding="UTF-8" standalone="yes"?><svg xmlns="http://www.w3.org/2000/svg" xmlns:xlink="http://www.w3.org/1999/xlink" version="1.2" baseProfile="tiny" x="0" y="0" width="13" height="13" viewBox="0 0 13.3281 13.3281"><defs/><path fill="#8d624f" d="M 6.67188 13.3281 C 10.3281 13.3281 13.3281 10.3281 13.3281 6.65625 C 13.3281 2.98438 10.3281 0 6.67188 0 C 3 0 0 2.98438 0 6.65625 C 0 10.3281 3 13.3281 6.67188 13.3281 M 5.82813 4.15625 C 5.82813 3.6875 6.20313 3.32813 6.67188 3.32813 C 7.125 3.32813 7.5 3.6875 7.5 4.15625 C 7.5 4.625 7.125 4.98438 6.67188 4.98438 C 6.20313 4.98438 5.82813 4.625 5.82813 4.15625 M 5.625 5.82813 L 6.875 5.82813 C 7.20313 5.82813 7.5 6.10938 7.5 6.45313 L 7.5 8.73438 L 7.70313 8.73438 C 8.04688 8.73438 8.32813 9.03125 8.32813 9.35938 C 8.32813 9.70313 8.04688 9.98438 7.70313 9.98438 L 5.625 9.98438 C 5.28125 9.98438 5 9.70313 5 9.35938 C 5 9.03125 5.28125 8.73438 5.625 8.73438 L 6.25 8.73438 L 6.25 7.07813 L 5.625 7.07813 C 5.28125 7.07813 5 6.78125 5 6.45313 C 5 6.10938 5.28125 5.82813 5.625 5.82813"/></svg>
