<?xml version="1.0" encoding="UTF-8" standalone="yes"?><svg xmlns="http://www.w3.org/2000/svg" xmlns:xlink="http://www.w3.org/1999/xlink" version="1.2" baseProfile="tiny" x="0" y="0" width="32" height="32" viewBox="0 0 32 32"><defs/><path fill="#8d624f" d="M 16 0 C 24.8125 0 32 7.1875 32 16 C 32 24.8125 24.8125 32 16 32 C 7.1875 32 0 24.8125 0 16 C 0 7.1875 7.1875 0 16 0 M 14.5 7.5 L 14.5 16 C 14.5 16.5 14.75 17 15.1875 17.25 L 21.1875 21.25 C 21.875 21.6875 22.8125 21.5 23.25 20.8125 C 23.6875 20.125 23.5 19.1875 22.8125 18.75 L 17.5 15.1875 L 17.5 7.5 C 17.5 6.6875 16.8125 6 16 6 C 15.1875 6 14.5 6.6875 14.5 7.5"/></svg>
