<?xml version="1.0" encoding="UTF-8" standalone="yes"?><svg xmlns="http://www.w3.org/2000/svg" xmlns:xlink="http://www.w3.org/1999/xlink" version="1.2" baseProfile="tiny" x="0" y="0" width="22" height="12" viewBox="0 0 22.5039 12.4922"><defs/><path fill="#8d624f" d="M 15.0039 2.5 C 14.3008 2.5 13.7539 1.95313 13.7539 1.25 C 13.7539 0.546875 14.3008 0 15.0039 0 L 21.2539 0 C 21.957 0 22.5039 0.546875 22.5039 1.25 L 22.5039 7.5 C 22.5039 8.20313 21.957 8.75 21.2539 8.75 C 20.5508 8.75 20.0039 8.20313 20.0039 7.5 L 20.0039 4.25 L 13.4102 10.8906 C 12.8945 11.3594 12.1133 11.3594 11.6133 10.8906 L 7.50391 6.75 L 2.16016 12.1406 C 1.64453 12.6094 0.863281 12.6094 0.363281 12.1406 C -0.121094 11.6406 -0.121094 10.8594 0.363281 10.3438 L 6.61328 4.09375 C 7.11328 3.625 7.89453 3.625 8.41016 4.09375 L 12.5039 8.23438 L 18.2539 2.5 L 15.0039 2.5 Z"/></svg>
