<?xml version="1.0" encoding="UTF-8" standalone="yes"?><svg xmlns="http://www.w3.org/2000/svg" xmlns:xlink="http://www.w3.org/1999/xlink" version="1.2" baseProfile="tiny" x="0" y="0" width="22" height="20" viewBox="0 0 22.503 20"><defs/><path fill="#8d624f" d="M 10.9375 1.20313 C 10.3906 0.46875 9.5 0 8.5625 0 C 6.95313 0 5.625 1.32813 5.625 2.92188 L 5.625 3 C 5.625 5.54688 8.82813 8.23438 10.3906 9.40625 C 10.9063 9.76563 11.6094 9.76563 12.1094 9.40625 C 13.6719 8.23438 16.875 5.54688 16.875 3 L 16.875 2.92188 C 16.875 1.32813 15.5469 0 13.9531 0 C 13.0156 0 12.1094 0.46875 11.5625 1.20313 L 11.25 1.67188 L 10.9375 1.20313 M 4.26563 13.3594 L 2.625 15 L 1.25 15 C 0.546875 15 0 15.5469 0 16.25 L 0 18.75 C 0 19.4531 0.546875 20 1.25 20 L 13.7969 20 C 14.9219 20 16.0156 19.6563 16.9219 18.9844 L 21.875 15.3125 C 22.5781 14.7969 22.7031 13.8281 22.1875 13.125 C 21.6875 12.4531 20.7031 12.2969 20 12.8125 L 15.3594 16.25 L 10.9375 16.25 C 10.4375 16.25 10 15.8125 10 15.3125 C 10 14.7969 10.4375 14.375 10.9375 14.375 L 13.75 14.375 C 14.4531 14.375 15 13.8281 15 13.125 C 15 12.4219 14.4531 11.875 13.75 11.875 L 7.8125 11.875 C 6.48438 11.875 5.20313 12.4219 4.26563 13.3594"/></svg>
