<?xml version="1.0" encoding="UTF-8" standalone="yes"?><svg xmlns="http://www.w3.org/2000/svg" xmlns:xlink="http://www.w3.org/1999/xlink" version="1.2" baseProfile="tiny" x="0" y="0" width="22" height="23" viewBox="0 0 22.5 23.8594"><defs/><path fill="#8d624f" d="M 11.25 0 C 11.4844 0 11.6719 0.046875 11.8594 0.140625 L 20.7188 3.89063 C 21.75 4.3125 22.5 5.34375 22.5 6.5625 C 22.5 11.2031 20.5781 19.7344 12.5156 23.5781 C 11.7188 23.9531 10.7813 23.9531 10.0313 23.5781 C 1.92188 19.7344 0.046875 11.2031 0 6.5625 C 0 5.34375 0.75 4.3125 1.78125 3.89063 L 10.6406 0.140625 C 10.8281 0.046875 11.0156 0 11.25 0 M 11.25 3.14063 L 11.25 20.8594 C 17.7188 17.7188 19.4531 10.7813 19.5 6.65625 L 11.25 3.14063"/></svg>
