<?xml version="1.0" encoding="UTF-8" standalone="yes"?><svg xmlns="http://www.w3.org/2000/svg" xmlns:xlink="http://www.w3.org/1999/xlink" version="1.2" baseProfile="tiny" x="0" y="0" width="18" height="14" viewBox="0 0 18.6719 14"><defs/><path fill="#8d624f" d="M 0 2.32813 L 0 3.5 L 18.6719 3.5 L 18.6719 2.32813 C 18.6719 1.04688 17.6094 0 16.3438 0 L 2.32813 0 C 1.0625 0 0 1.04688 0 2.32813 M 0 5.25 L 0 11.6719 C 0 12.9375 1.0625 14 2.32813 14 L 16.3438 14 C 17.6094 14 18.6719 12.9375 18.6719 11.6719 L 18.6719 5.25 L 0 5.25 M 2.32813 10.7969 C 2.32813 10.3125 2.73438 9.92188 3.20313 9.92188 L 4.95313 9.92188 C 5.4375 9.92188 5.82813 10.3125 5.82813 10.7969 C 5.82813 11.2656 5.4375 11.6719 4.95313 11.6719 L 3.20313 11.6719 C 2.73438 11.6719 2.32813 11.2656 2.32813 10.7969 M 7.57813 10.7969 C 7.57813 10.3125 7.98438 9.92188 8.45313 9.92188 L 10.7969 9.92188 C 11.2656 9.92188 11.6719 10.3125 11.6719 10.7969 C 11.6719 11.2656 11.2656 11.6719 10.7969 11.6719 L 8.45313 11.6719 C 7.98438 11.6719 7.57813 11.2656 7.57813 10.7969"/></svg>
