<?xml version="1.0" encoding="UTF-8" standalone="yes"?><svg xmlns="http://www.w3.org/2000/svg" xmlns:xlink="http://www.w3.org/1999/xlink" version="1.2" baseProfile="tiny" x="0" y="0" width="18" height="17" viewBox="0 0 18.632 17.7917"><defs/><path fill="#d59134" d="M 10.0521 0.4375 C 9.89586 0.171875 9.61461 0 9.31773 0 C 9.00523 0 8.73961 0.171875 8.59898 0.4375 L 6.09898 5.3125 L 0.677109 6.20313 C 0.380234 6.23438 0.145859 6.4375 0.0364837 6.73438 C -0.0572663 7.04688 0.0364837 7.34375 0.239609 7.54688 L 4.09898 11.4375 L 3.25523 16.8594 C 3.22398 17.1563 3.31773 17.4688 3.59898 17.6406 C 3.83336 17.8125 4.17711 17.8438 4.44273 17.7031 L 9.31773 15.2344 L 14.1927 17.7031 C 14.4584 17.8438 14.8021 17.8125 15.0365 17.6406 C 15.3021 17.4688 15.4115 17.1563 15.3802 16.8594 L 14.5209 11.4375 L 18.3802 7.54688 C 18.6146 7.34375 18.6927 7.04688 18.5834 6.73438 C 18.4896 6.4375 18.2552 6.23438 17.9427 6.20313 L 12.5365 5.3125 L 10.0521 0.4375 Z"/></svg>
