<?xml version="1.0" encoding="UTF-8" standalone="yes"?><svg xmlns="http://www.w3.org/2000/svg" xmlns:xlink="http://www.w3.org/1999/xlink" version="1.2" baseProfile="tiny" x="0" y="0" width="10" height="9" viewBox="0 0 10.03 9.58127"><defs/><path fill="#8d624f" d="M 5.40872 0.234375 C 5.3306 0.09375 5.17435 0 5.0181 0 C 4.84622 0 4.7056 0.09375 4.62747 0.234375 L 3.28372 2.85938 L 0.36185 3.34375 C 0.2056 3.35938 0.0805997 3.46875 0.0180997 3.625 C -0.0287753 3.79688 0.0180997 3.95313 0.127475 4.0625 L 2.2056 6.15625 L 1.75247 9.07813 C 1.73685 9.23438 1.78372 9.40625 1.93997 9.5 C 2.06497 9.59375 2.25247 9.60938 2.3931 9.53125 L 5.0181 8.20313 L 7.6431 9.53125 C 7.78372 9.60938 7.97122 9.59375 8.09622 9.5 C 8.23685 9.40625 8.29935 9.23438 8.28372 9.07813 L 7.81497 6.15625 L 9.8931 4.0625 C 10.0181 3.95313 10.065 3.79688 10.0025 3.625 C 9.9556 3.46875 9.8306 3.35938 9.65872 3.34375 L 6.75247 2.85938 L 5.40872 0.234375 Z"/></svg>
