<?xml version="1.0" encoding="UTF-8" standalone="yes"?><svg xmlns="http://www.w3.org/2000/svg" xmlns:xlink="http://www.w3.org/1999/xlink" version="1.2" baseProfile="tiny" x="0" y="0" width="21" height="16" viewBox="0 0 21.25 16.875"><defs/><path fill="#8d624f" d="M 11.6094 2.76563 C 11.9531 2.5 12.1875 2.0625 12.1875 1.5625 C 12.1875 0.703125 11.4844 0 10.625 0 C 9.76563 0 9.0625 0.703125 9.0625 1.5625 C 9.0625 2.0625 9.29688 2.5 9.65625 2.76563 L 7 6.98438 C 6.60938 7.60938 5.75 7.73438 5.15625 7.29688 L 2.85938 5.57813 C 3.01563 5.3125 3.125 5 3.125 4.6875 C 3.125 3.82813 2.42188 3.125 1.5625 3.125 C 0.703125 3.125 0 3.82813 0 4.6875 C 0 5.54688 0.703125 6.25 1.53125 6.25 L 2.8125 14.7656 C 3.01563 15.9688 4.03125 16.875 5.28125 16.875 L 15.9844 16.875 C 17.2344 16.875 18.2813 15.9688 18.4375 14.7656 L 19.7344 6.25 C 20.5938 6.25 21.25 5.54688 21.25 4.6875 C 21.25 3.82813 20.5469 3.125 19.6875 3.125 C 18.8281 3.125 18.125 3.82813 18.125 4.6875 C 18.125 5 18.25 5.3125 18.4063 5.57813 L 16.0938 7.29688 C 15.5156 7.76563 14.6875 7.60938 14.2969 6.98438 L 11.6094 2.76563 Z"/></svg>
