<?xml version="1.0" encoding="UTF-8" standalone="yes"?><svg xmlns="http://www.w3.org/2000/svg" xmlns:xlink="http://www.w3.org/1999/xlink" version="1.2" baseProfile="tiny" x="0" y="0" width="24" height="21" viewBox="0 0 24 21"><defs/><path fill="#8d624f" d="M 12 3.5625 L 11.2969 2.57813 C 10.125 0.984375 8.25 0 6.23438 0 C 2.8125 0 0 2.8125 0 6.23438 L 0 6.375 C 0 7.45313 0.28125 8.625 0.796875 9.75 L 5.76563 9.75 C 5.90625 9.75 6.04688 9.65625 6.09375 9.51563 L 7.59375 5.95313 C 7.78125 5.53125 8.15625 5.25 8.625 5.25 C 9.04688 5.25 9.46875 5.48438 9.65625 5.90625 L 12.0469 11.25 L 14.0156 7.35938 C 14.2031 6.98438 14.5781 6.75 15 6.75 C 15.4219 6.75 15.7969 6.98438 16.0313 7.35938 L 17.1094 9.5625 C 17.1563 9.65625 17.2969 9.75 17.4375 9.75 L 23.25 9.75 C 23.7188 8.625 24 7.45313 24 6.375 L 24 6.23438 C 24 2.8125 21.1875 0 17.7656 0 C 15.75 0 13.875 0.984375 12.7031 2.57813 L 12 3.5625 M 22.0313 12 L 17.4375 12 C 16.4531 12 15.5156 11.4375 15.0938 10.5469 L 15 10.4063 L 13.0313 14.3906 C 12.7969 14.7656 12.4219 15 12 15 C 11.5313 15 11.1563 14.7188 10.9688 14.3438 L 8.67188 9.1875 L 8.15625 10.4063 C 7.78125 11.3906 6.79688 12 5.76563 12 L 1.96875 12 C 4.21875 15.4688 7.73438 18.6563 9.98438 20.3438 C 10.5469 20.7656 11.25 21 12 21 C 12.7031 21 13.4531 20.8125 14.0156 20.3438 C 16.2656 18.6563 19.7813 15.4688 22.0313 12"/></svg>
