<?xml version="1.0" encoding="UTF-8" standalone="yes"?><svg xmlns="http://www.w3.org/2000/svg" xmlns:xlink="http://www.w3.org/1999/xlink" version="1.2" baseProfile="tiny" x="0" y="0" width="24" height="21" viewBox="0 0 24 21"><defs/><path fill="#8d624f" d="M 3 1.5 C 3 0.65625 2.34375 0 1.5 0 C 0.65625 0 0 0.65625 0 1.5 L 0 17.25 C 0 19.3125 1.6875 21 3.75 21 L 22.5 21 C 23.3438 21 24 20.3438 24 19.5 C 24 18.6563 23.3438 18 22.5 18 L 3.75 18 C 3.32813 18 3 17.6719 3 17.25 L 3 1.5 M 22.0781 5.57813 C 22.6406 4.96875 22.6406 4.03125 22.0781 3.42188 C 21.4688 2.85938 20.5313 2.85938 19.9219 3.42188 L 15 8.39063 L 12.3281 5.67188 C 11.7188 5.10938 10.7813 5.10938 10.1719 5.67188 L 5.67188 10.1719 C 5.10938 10.7813 5.10938 11.7188 5.67188 12.3281 C 6.28125 12.8906 7.21875 12.8906 7.82813 12.3281 L 11.25 8.85938 L 13.9219 11.5781 C 14.5313 12.1406 15.4688 12.1406 16.0781 11.5781 L 22.0781 5.57813"/></svg>
