<?xml version="1.0" encoding="UTF-8" standalone="yes"?><svg xmlns="http://www.w3.org/2000/svg" xmlns:xlink="http://www.w3.org/1999/xlink" version="1.2" baseProfile="tiny" x="0" y="0" width="22" height="22" viewBox="0 0 22.6719 22.6719"><defs/><path fill="#8d624f" d="M 11.3438 22.6719 C 17.5781 22.6719 22.6719 17.5781 22.6719 11.3438 C 22.6719 5.09375 17.5781 0 11.3438 0 C 5.09375 0 0 5.09375 0 11.3438 C 0 17.5781 5.09375 22.6719 11.3438 22.6719 M 9.92188 7.09375 C 9.92188 6.29688 10.5313 5.67188 11.3438 5.67188 C 12.1406 5.67188 12.75 6.29688 12.75 7.09375 C 12.75 7.89063 12.1406 8.5 11.3438 8.5 C 10.5313 8.5 9.92188 7.89063 9.92188 7.09375 M 9.5625 9.92188 L 11.6875 9.92188 C 12.2656 9.92188 12.75 10.4063 12.75 10.9844 L 12.75 14.8906 L 13.1094 14.8906 C 13.6875 14.8906 14.1719 15.375 14.1719 15.9531 C 14.1719 16.5156 13.6875 17.0156 13.1094 17.0156 L 9.5625 17.0156 C 8.98438 17.0156 8.5 16.5156 8.5 15.9531 C 8.5 15.375 8.98438 14.8906 9.5625 14.8906 L 10.625 14.8906 L 10.625 12.0469 L 9.5625 12.0469 C 8.98438 12.0469 8.5 11.5625 8.5 10.9844 C 8.5 10.4063 8.98438 9.92188 9.5625 9.92188"/></svg>
