<?xml version="1.0" encoding="UTF-8" standalone="yes"?><svg xmlns="http://www.w3.org/2000/svg" xmlns:xlink="http://www.w3.org/1999/xlink" version="1.2" baseProfile="tiny" x="0" y="0" width="22" height="15" viewBox="0 0 22.1563 15.8281"><defs/><path fill="#8d624f" d="M 0 5.92188 C 0 2.67188 2.67188 0 5.9375 0 L 6.32813 0 C 7.21875 0 7.92188 0.6875 7.92188 1.57813 C 7.92188 2.46875 7.21875 3.15625 6.32813 3.15625 L 5.9375 3.15625 C 4.40625 3.15625 3.17188 4.39063 3.17188 5.92188 L 3.17188 6.32813 L 6.32813 6.32813 C 8.0625 6.32813 9.5 7.76563 9.5 9.48438 L 9.5 12.6563 C 9.5 14.3906 8.0625 15.8281 6.32813 15.8281 L 3.17188 15.8281 C 1.4375 15.8281 0 14.3906 0 12.6563 L 0 5.92188 M 12.6719 5.92188 C 12.6719 2.67188 15.3281 0 18.5938 0 L 19 0 C 19.8906 0 20.5781 0.6875 20.5781 1.57813 C 20.5781 2.46875 19.8906 3.15625 19 3.15625 L 18.5938 3.15625 C 17.0625 3.15625 15.8281 4.39063 15.8281 5.92188 L 15.8281 6.32813 L 19 6.32813 C 20.7344 6.32813 22.1563 7.76563 22.1563 9.48438 L 22.1563 12.6563 C 22.1563 14.3906 20.7344 15.8281 19 15.8281 L 15.8281 15.8281 C 14.0938 15.8281 12.6719 14.3906 12.6719 12.6563 L 12.6719 5.92188"/></svg>
