<?xml version="1.0" encoding="UTF-8" standalone="yes"?><svg xmlns="http://www.w3.org/2000/svg" xmlns:xlink="http://www.w3.org/1999/xlink" version="1.2" baseProfile="tiny" x="0" y="0" width="24" height="22" viewBox="0 0 24.0123 22.5"><defs/><path fill="#8d624f" d="M 12.0062 0 C 12.7093 0 13.3187 0.375 13.6468 0.984375 L 23.7718 19.7344 C 24.0999 20.2969 24.0999 21 23.7249 21.6094 C 23.3968 22.1719 22.7874 22.5 22.1312 22.5 L 1.88115 22.5 C 1.2249 22.5 0.615528 22.1719 0.287403 21.6094 C -0.0875974 21 -0.0875974 20.2969 0.240528 19.7344 L 10.3655 0.984375 C 10.6937 0.375 11.303 0 12.0062 0 M 12.0062 16.5 C 11.1624 16.5 10.5062 17.1563 10.5062 18 C 10.5062 18.8438 11.1624 19.5 12.0062 19.5 C 12.8499 19.5 13.5062 18.8438 13.5062 18 C 13.5062 17.1563 12.8499 16.5 12.0062 16.5 M 12.0062 7.5 C 11.1624 7.5 10.4593 8.25 10.553 9.09375 L 10.8812 13.9688 C 10.928 14.5313 11.3968 15 12.0062 15 C 12.6155 15 13.0843 14.5313 13.1312 13.9688 L 13.4593 9.09375 C 13.553 8.25 12.8499 7.5 12.0062 7.5"/></svg>
