<?xml version="1.0" encoding="UTF-8" standalone="yes"?><svg xmlns="http://www.w3.org/2000/svg" xmlns:xlink="http://www.w3.org/1999/xlink" version="1.2" baseProfile="tiny" x="0" y="0" width="19" height="17" viewBox="0 0 19.9992 17.8125"><defs/><path fill="#8d624f" d="M 4.58219 0.390625 C 4.73844 0.15625 5.00406 0 5.31656 0 L 14.6916 0 C 15.0041 0 15.2853 0.15625 15.4416 0.390625 L 19.8166 6.32813 C 20.0822 6.67188 20.0509 7.1875 19.7697 7.5 L 10.7072 17.5 C 10.5197 17.7031 10.2853 17.8125 10.0041 17.8125 C 9.73844 17.8125 9.50406 17.7031 9.30094 17.5 L 0.238436 7.5 C -0.0740645 7.1875 -0.0740645 6.67188 0.207186 6.32813 L 4.58219 0.390625 M 6.06656 1.95313 C 5.94156 2.03125 5.91031 2.21875 5.98844 2.34375 L 8.25406 6.09375 L 2.47281 6.5625 C 2.31656 6.5625 2.19156 6.71875 2.19156 6.875 C 2.19156 7.03125 2.31656 7.1875 2.47281 7.1875 L 9.97281 7.8125 C 10.0041 7.8125 10.0041 7.8125 10.0509 7.8125 L 17.5509 7.1875 C 17.7072 7.1875 17.8166 7.03125 17.8166 6.875 C 17.8166 6.71875 17.7072 6.5625 17.5509 6.5625 L 11.7697 6.09375 L 14.0353 2.34375 C 14.1134 2.21875 14.0666 2.03125 13.9572 1.95313 C 13.8009 1.82813 13.6447 1.875 13.5197 1.98438 L 10.0041 5.78125 L 6.48844 1.98438 C 6.37906 1.875 6.22281 1.82813 6.06656 1.95313"/></svg>
