<?xml version="1.0" encoding="UTF-8" standalone="yes"?><svg xmlns="http://www.w3.org/2000/svg" xmlns:xlink="http://www.w3.org/1999/xlink" version="1.2" baseProfile="tiny" x="0" y="0" width="24" height="20" viewBox="0 0 24.9985 20.0032"><defs/><path fill="#8d624f" d="M 6.09291 0.663581 C 6.37416 0.116706 7.03041 -0.148919 7.62416 0.0854556 L 12.4992 1.88233 L 17.3898 0.0854556 C 17.9679 -0.148919 18.6398 0.116706 18.9054 0.663581 L 21.9992 6.64796 C 23.1242 8.83546 22.421 11.4448 20.5148 12.773 L 21.7179 16.1323 L 23.3273 15.5542 C 23.9835 15.3198 24.6867 15.6636 24.921 16.2886 C 25.1554 16.9605 24.8429 17.6636 24.1867 17.898 C 22.3429 18.5698 20.4679 19.273 18.6398 19.9292 C 17.9679 20.1636 17.2648 19.8198 17.0304 19.1948 C 16.796 18.523 17.1085 17.8198 17.7804 17.5855 L 19.3742 16.9917 L 18.171 13.6323 C 15.8273 13.8355 13.5929 12.3042 13.0929 9.88233 L 12.4992 7.38233 L 11.921 9.88233 C 11.4054 12.3042 9.18666 13.8355 6.84291 13.6323 L 5.62416 16.9917 L 7.23354 17.5855 C 7.88979 17.8198 8.20229 18.523 7.96791 19.1948 C 7.73354 19.8198 7.03041 20.1636 6.37416 19.9292 C 4.53041 19.273 2.65541 18.5698 0.82729 17.898 C 0.155415 17.6636 -0.157085 16.9605 0.0772896 16.2886 C 0.311665 15.6636 1.01479 15.3198 1.68666 15.5542 L 3.28041 16.1323 L 4.49916 12.773 C 2.62416 11.4448 1.87416 8.83546 3.01479 6.64796 L 6.09291 0.663581 M 7.81166 2.81983 L 6.71791 4.88233 L 10.2335 6.13233 L 10.7492 3.86671 L 7.81166 2.81983 M 17.2335 2.81983 L 14.2648 3.86671 L 14.8117 6.13233 L 18.2804 4.88233 L 17.2335 2.81983"/></svg>
