<?xml version="1.0" encoding="UTF-8" standalone="yes"?><svg xmlns="http://www.w3.org/2000/svg" xmlns:xlink="http://www.w3.org/1999/xlink" version="1.2" baseProfile="tiny" x="0" y="0" width="22" height="27" viewBox="0 0 22.75 27.5625"><defs/><path fill="#8d624f" d="M 11.375 13.125 C 7.76563 13.125 4.8125 10.1719 4.8125 6.5625 C 4.8125 2.95313 7.76563 0 11.375 0 C 14.9844 0 17.9375 2.95313 17.9375 6.5625 C 17.9375 10.1719 14.9844 13.125 11.375 13.125 M 9.73438 16.1875 L 13.0781 16.1875 C 13.5625 16.1875 14 16.625 14 17.1719 C 14 17.3906 13.9531 17.6094 13.7813 17.7656 L 12.25 19.5156 L 13.9531 25.8125 L 14 25.8125 L 15.9219 18.2656 C 16.0313 17.7656 16.5156 17.5 16.9531 17.6563 C 20.3438 18.9219 22.75 22.2031 22.75 26.0938 C 22.75 26.9063 22.0938 27.5625 21.2813 27.5625 L 1.48438 27.5625 C 0.65625 27.5625 0 26.9063 0 26.0938 C 0 22.2031 2.40625 18.9219 5.79688 17.6563 C 6.23438 17.5 6.73438 17.7656 6.84375 18.2656 L 8.75 25.8125 L 8.8125 25.8125 L 10.5 19.5156 L 8.96875 17.7656 C 8.85938 17.6094 8.75 17.3906 8.75 17.1719 C 8.75 16.625 9.1875 16.1875 9.73438 16.1875"/></svg>
