<?xml version="1.0" encoding="UTF-8" standalone="yes"?><svg xmlns="http://www.w3.org/2000/svg" xmlns:xlink="http://www.w3.org/1999/xlink" version="1.2" baseProfile="tiny" x="0" y="0" width="24" height="17" viewBox="0 0 24.5 17.5"><defs/><path fill="#d59134" d="M 0 6.5625 C 0 2.95313 2.95313 0 6.5625 0 L 7 0 C 7.98438 0 8.75 0.765625 8.75 1.75 C 8.75 2.73438 7.98438 3.5 7 3.5 L 6.5625 3.5 C 4.875 3.5 3.5 4.85938 3.5 6.5625 L 3.5 7 L 7 7 C 8.92188 7 10.5 8.57813 10.5 10.5 L 10.5 14 C 10.5 15.9063 8.92188 17.5 7 17.5 L 3.5 17.5 C 1.59375 17.5 0 15.9063 0 14 L 0 6.5625 M 14 6.5625 C 14 2.95313 16.9531 0 20.5625 0 L 21 0 C 21.9844 0 22.75 0.765625 22.75 1.75 C 22.75 2.73438 21.9844 3.5 21 3.5 L 20.5625 3.5 C 18.875 3.5 17.5 4.85938 17.5 6.5625 L 17.5 7 L 21 7 C 22.9219 7 24.5 8.57813 24.5 10.5 L 24.5 14 C 24.5 15.9063 22.9219 17.5 21 17.5 L 17.5 17.5 C 15.5938 17.5 14 15.9063 14 14 L 14 6.5625"/></svg>
