<?xml version="1.0" encoding="UTF-8" standalone="yes"?><svg xmlns="http://www.w3.org/2000/svg" xmlns:xlink="http://www.w3.org/1999/xlink" version="1.2" baseProfile="tiny" x="0" y="0" width="24" height="23" viewBox="0 0 24.0122 23.2383"><defs/><path fill="#d59134" d="M 12.7561 0.175781 C 12.2873 -0.0585938 11.7248 -0.0585938 11.2561 0.175781 L 0.756092 6.17578 C 0.193592 6.50391 -0.134533 7.20703 0.0529667 7.86328 C 0.240467 8.51953 0.849842 8.98828 1.50609 8.98828 L 3.00609 8.98828 L 3.00609 18.7383 L 0.615467 20.5195 C 0.240467 20.8008 0.00609168 21.2695 0.00609168 21.7383 C 0.00609168 22.582 0.662342 23.2383 1.50609 23.2383 L 22.5061 23.2383 C 23.3498 23.2383 24.0061 22.582 24.0061 21.7383 C 24.0061 21.2695 23.7717 20.8008 23.3967 20.5195 L 21.0061 18.7383 L 21.0061 8.98828 L 22.5061 8.98828 C 23.2092 8.98828 23.7717 8.51953 23.9592 7.86328 C 24.1467 7.20703 23.8186 6.50391 23.2561 6.17578 L 12.7561 0.175781 M 18.7561 8.98828 L 18.7561 18.7383 L 15.7561 18.7383 L 15.7561 8.98828 L 18.7561 8.98828 M 13.5061 8.98828 L 13.5061 18.7383 L 10.5061 18.7383 L 10.5061 8.98828 L 13.5061 8.98828 M 8.25609 8.98828 L 8.25609 18.7383 L 5.25609 18.7383 L 5.25609 8.98828 L 8.25609 8.98828 M 12.0061 3.73828 C 12.8498 3.73828 13.5061 4.39453 13.5061 5.23828 C 13.5061 6.08203 12.8498 6.73828 12.0061 6.73828 C 11.1623 6.73828 10.5061 6.08203 10.5061 5.23828 C 10.5061 4.39453 11.1623 3.73828 12.0061 3.73828"/></svg>
