<?xml version="1.0" encoding="UTF-8" standalone="yes"?><svg xmlns="http://www.w3.org/2000/svg" xmlns:xlink="http://www.w3.org/1999/xlink" version="1.2" baseProfile="tiny" x="0" y="0" width="17" height="12" viewBox="0 0 17.5 12.5"><defs/><path fill="#d59134" d="M 0 4.6875 C 0 2.10938 2.10938 0 4.6875 0 L 5 0 C 5.70313 0 6.25 0.546875 6.25 1.25 C 6.25 1.95313 5.70313 2.5 5 2.5 L 4.6875 2.5 C 3.48438 2.5 2.5 3.46875 2.5 4.6875 L 2.5 5 L 5 5 C 6.375 5 7.5 6.125 7.5 7.5 L 7.5 10 C 7.5 11.3594 6.375 12.5 5 12.5 L 2.5 12.5 C 1.14063 12.5 0 11.3594 0 10 L 0 4.6875 M 10 4.6875 C 10 2.10938 12.1094 0 14.6875 0 L 15 0 C 15.7031 0 16.25 0.546875 16.25 1.25 C 16.25 1.95313 15.7031 2.5 15 2.5 L 14.6875 2.5 C 13.4844 2.5 12.5 3.46875 12.5 4.6875 L 12.5 5 L 15 5 C 16.375 5 17.5 6.125 17.5 7.5 L 17.5 10 C 17.5 11.3594 16.375 12.5 15 12.5 L 12.5 12.5 C 11.1406 12.5 10 11.3594 10 10 L 10 4.6875"/></svg>
