<?xml version="1.0" encoding="UTF-8" standalone="yes"?><svg xmlns="http://www.w3.org/2000/svg" xmlns:xlink="http://www.w3.org/1999/xlink" version="1.2" baseProfile="tiny" x="0" y="0" width="24" height="17" viewBox="0 0 24.5 17.5"><defs/><path fill="#d59134" d="M 24.5 10.9375 C 24.5 14.5469 21.5469 17.5 17.9375 17.5 L 17.5 17.5 C 16.5156 17.5 15.75 16.7344 15.75 15.75 C 15.75 14.7656 16.5156 14 17.5 14 L 17.9375 14 C 19.6406 14 21 12.625 21 10.9375 L 21 10.5 L 17.5 10.5 C 15.5938 10.5 14 8.90625 14 7 L 14 3.5 C 14 1.57813 15.5938 0 17.5 0 L 21 0 C 22.9219 0 24.5 1.57813 24.5 3.5 L 24.5 10.9375 M 10.5 10.9375 C 10.5 14.5469 7.54688 17.5 3.9375 17.5 L 3.5 17.5 C 2.51563 17.5 1.75 16.7344 1.75 15.75 C 1.75 14.7656 2.51563 14 3.5 14 L 3.9375 14 C 5.64063 14 7 12.625 7 10.9375 L 7 10.5 L 3.5 10.5 C 1.59375 10.5 0 8.90625 0 7 L 0 3.5 C 0 1.57813 1.59375 0 3.5 0 L 7 0 C 8.92188 0 10.5 1.57813 10.5 3.5 L 10.5 10.9375"/></svg>
