<?xml version="1.0" encoding="UTF-8" standalone="yes"?><svg xmlns="http://www.w3.org/2000/svg" xmlns:xlink="http://www.w3.org/1999/xlink" version="1.2" baseProfile="tiny" x="0" y="0" width="20" height="17" viewBox="0 0 20 17.5"><defs/><path fill="#d59134" d="M 9.42188 2.14063 L 10 2.96875 L 10.5938 2.14063 C 11.5625 0.8125 13.125 0 14.8125 0 C 17.6563 0 20 2.34375 20 5.1875 L 20 5.3125 C 20 9.6875 14.5313 14.7656 11.6875 16.9531 C 11.2188 17.3125 10.625 17.5 10 17.5 C 9.42188 17.5 8.79688 17.3125 8.32813 16.9531 C 5.46875 14.7656 0 9.6875 0 5.3125 L 0 5.1875 C 0 2.34375 2.34375 0 5.20313 0 C 6.875 0 8.4375 0.8125 9.42188 2.14063 Z"/></svg>
