<?xml version="1.0" encoding="UTF-8" standalone="yes"?><svg xmlns="http://www.w3.org/2000/svg" xmlns:xlink="http://www.w3.org/1999/xlink" version="1.2" baseProfile="tiny" x="0" y="0" width="19" height="20" viewBox="0 0 19.9333 20"><defs/><path fill="#d59134" d="M 5.58481 0 L 14.3348 0 C 15.3973 0 16.2098 0.859375 16.1786 1.875 C 16.1786 2.10938 16.1786 2.29688 16.1786 2.5 L 18.0848 2.5 C 19.1004 2.5 20.0067 3.35938 19.9286 4.45313 C 19.6473 8.51563 17.5848 10.7344 15.3192 11.875 C 14.7254 12.2188 14.1004 12.4531 13.4754 12.6094 C 12.6942 13.75 11.8817 14.3281 11.2098 14.6406 L 11.2098 17.5 L 13.7098 17.5 C 14.4129 17.5 14.9598 18.0469 14.9598 18.75 C 14.9598 19.4531 14.4129 20 13.7098 20 L 6.20981 20 C 5.55356 20 4.95981 19.4531 4.95981 18.75 C 4.95981 18.0469 5.55356 17.5 6.20981 17.5 L 8.70981 17.5 L 8.70981 14.6406 C 8.08481 14.3281 7.30356 13.7813 6.56919 12.7656 C 5.86606 12.5781 5.08481 12.2969 4.30356 11.875 C 2.19419 10.6563 0.272312 8.4375 0.00668653 4.45313 C -0.0870635 3.35938 0.819187 2.5 1.83481 2.5 L 3.78794 2.5 C 3.78794 2.29688 3.75669 2.10938 3.75669 1.875 C 3.70981 0.859375 4.56919 0 5.58481 0 M 3.94419 4.375 L 1.88169 4.375 C 2.11606 7.6875 3.63169 9.32813 5.19419 10.2344 C 4.64731 8.75 4.17856 6.875 3.94419 4.375 M 14.8036 10.0313 C 16.4129 9.09375 17.8192 7.45313 18.0536 4.375 L 16.0223 4.375 C 15.7879 6.75 15.3504 8.59375 14.8036 10.0313"/></svg>
