<?xml version="1.0" encoding="UTF-8" standalone="yes"?><svg xmlns="http://www.w3.org/2000/svg" xmlns:xlink="http://www.w3.org/1999/xlink" version="1.2" baseProfile="tiny" x="0" y="0" width="25" height="18" viewBox="0 0 25 18.125"><defs/><path fill="#d59134" d="M 12.5 0 C 14.7344 0 16.5625 1.82813 16.5625 4.0625 C 16.5625 6.28125 14.7344 8.125 12.5 8.125 C 10.2813 8.125 8.4375 6.28125 8.4375 4.0625 C 8.4375 1.82813 10.2813 0 12.5 0 M 3.75 2.8125 C 5.3125 2.8125 6.5625 4.0625 6.5625 5.625 C 6.5625 7.1875 5.3125 8.4375 3.75 8.4375 C 2.1875 8.4375 0.9375 7.1875 0.9375 5.625 C 0.9375 4.0625 2.1875 2.8125 3.75 2.8125 M 0 15.625 C 0 12.8438 2.23438 10.625 5 10.625 C 5.51563 10.625 5.98438 10.7031 6.45313 10.8125 C 5.15625 12.2656 4.375 14.1719 4.375 16.25 L 4.375 16.875 C 4.375 17.3125 4.45313 17.7344 4.65625 18.125 L 1.25 18.125 C 0.546875 18.125 0 17.5781 0 16.875 L 0 15.625 M 20.3594 18.125 C 20.5469 17.7344 20.625 17.3125 20.625 16.875 L 20.625 16.25 C 20.625 14.1719 19.8438 12.2656 18.5625 10.8125 C 19.0313 10.7031 19.5 10.625 20 10.625 C 22.7813 10.625 25 12.8438 25 15.625 L 25 16.875 C 25 17.5781 24.4531 18.125 23.75 18.125 L 20.3594 18.125 M 18.4375 5.625 C 18.4375 4.0625 19.6875 2.8125 21.25 2.8125 C 22.8125 2.8125 24.0625 4.0625 24.0625 5.625 C 24.0625 7.1875 22.8125 8.4375 21.25 8.4375 C 19.6875 8.4375 18.4375 7.1875 18.4375 5.625 M 6.25 16.25 C 6.25 12.8125 9.0625 10 12.5 10 C 15.9375 10 18.75 12.8125 18.75 16.25 L 18.75 16.875 C 18.75 17.5781 18.2031 18.125 17.5 18.125 L 7.5 18.125 C 6.79688 18.125 6.25 17.5781 6.25 16.875 L 6.25 16.25"/></svg>
