<?xml version="1.0" encoding="UTF-8" standalone="yes"?><svg xmlns="http://www.w3.org/2000/svg" xmlns:xlink="http://www.w3.org/1999/xlink" version="1.2" baseProfile="tiny" x="0" y="0" width="20" height="16" viewBox="0 0 20 16.25"><defs/><path fill="#d59134" d="M 2.5 0 C 1.14063 0 0 1.125 0 2.5 L 0 13.75 C 0 15.1094 1.14063 16.25 2.5 16.25 L 17.5 16.25 C 18.875 16.25 20 15.1094 20 13.75 L 20 6.25 C 20 4.875 18.875 3.75 17.5 3.75 L 2.8125 3.75 C 2.3125 3.75 1.875 3.3125 1.875 2.8125 C 1.875 2.29688 2.3125 1.875 2.8125 1.875 L 17.8125 1.875 C 18.3281 1.875 18.75 1.4375 18.75 0.9375 C 18.75 0.421875 18.3281 0 17.8125 0 L 2.5 0 M 16.25 8.75 C 16.9531 8.75 17.5 9.29688 17.5 10 C 17.5 10.7031 16.9531 11.25 16.25 11.25 C 15.5469 11.25 15 10.7031 15 10 C 15 9.29688 15.5469 8.75 16.25 8.75"/></svg>
