<?xml version="1.0" encoding="UTF-8" standalone="yes"?><svg xmlns="http://www.w3.org/2000/svg" xmlns:xlink="http://www.w3.org/1999/xlink" version="1.2" baseProfile="tiny" x="0" y="0" width="15" height="20" viewBox="0 0 15 20"><defs/><path fill="#d59134" d="M 0 2.5 C 0 1.125 1.14063 0 2.5 0 L 8.35938 0 C 9.03125 0 9.65625 0.265625 10.125 0.734375 L 14.2656 4.875 C 14.7344 5.34375 15 6.01563 15 6.67188 L 15 17.5 C 15 18.875 13.875 20 12.5 20 L 2.5 20 C 1.14063 20 0 18.875 0 17.5 L 0 2.5 M 8.125 2.29688 L 8.125 5.9375 C 8.125 6.4375 8.5625 6.875 9.0625 6.875 L 12.7344 6.875 L 8.125 2.29688 M 2.5 3.4375 C 2.5 3.9375 2.9375 4.375 3.4375 4.375 L 5.3125 4.375 C 5.82813 4.375 6.25 3.9375 6.25 3.4375 C 6.25 2.92188 5.82813 2.5 5.3125 2.5 L 3.4375 2.5 C 2.9375 2.5 2.5 2.92188 2.5 3.4375 M 2.5 7.1875 C 2.5 7.6875 2.9375 8.125 3.4375 8.125 L 5.3125 8.125 C 5.82813 8.125 6.25 7.6875 6.25 7.1875 C 6.25 6.67188 5.82813 6.25 5.3125 6.25 L 3.4375 6.25 C 2.9375 6.25 2.5 6.67188 2.5 7.1875 M 6.875 10.1563 L 6.875 10.3125 C 5.75 10.3125 4.84375 11.25 4.84375 12.375 C 4.84375 13.3594 5.59375 14.2188 6.5625 14.375 L 8.20313 14.6406 C 8.4375 14.6875 8.59375 14.9219 8.59375 15.1563 C 8.59375 15.4219 8.35938 15.625 8.125 15.625 L 5.9375 15.625 C 5.51563 15.625 5.15625 15.9688 5.15625 16.4063 C 5.15625 16.8281 5.51563 17.1875 5.9375 17.1875 L 6.875 17.1875 L 6.875 17.3438 C 6.875 17.7813 7.23438 18.125 7.65625 18.125 C 8.09375 18.125 8.4375 17.7813 8.4375 17.3438 L 8.4375 17.1406 C 9.42188 16.9844 10.1563 16.1719 10.1563 15.1563 C 10.1563 14.1406 9.45313 13.2813 8.4375 13.125 L 6.79688 12.8438 C 6.5625 12.8125 6.40625 12.6094 6.40625 12.3438 C 6.40625 12.1094 6.64063 11.875 6.92188 11.875 L 8.75 11.875 C 9.1875 11.875 9.53125 11.5156 9.53125 11.0938 C 9.53125 10.6563 9.1875 10.3125 8.75 10.3125 L 8.4375 10.3125 L 8.4375 10.1563 C 8.4375 9.71875 8.09375 9.375 7.65625 9.375 C 7.23438 9.375 6.875 9.71875 6.875 10.1563"/></svg>
