<?xml version="1.0" encoding="UTF-8" standalone="yes"?><svg xmlns="http://www.w3.org/2000/svg" xmlns:xlink="http://www.w3.org/1999/xlink" version="1.2" baseProfile="tiny" x="0" y="0" width="18" height="19" viewBox="0 0 18.75 19.8906"><defs/><path fill="#d59134" d="M 9.375 0 C 9.57813 0 9.73438 0.03125 9.89063 0.109375 L 17.2656 3.23438 C 18.125 3.59375 18.75 4.45313 18.75 5.46875 C 18.75 9.32813 17.1563 16.4375 10.4375 19.6563 C 9.76563 19.9688 8.98438 19.9688 8.35938 19.6563 C 1.60938 16.4375 0.046875 9.32813 0 5.46875 C 0 4.45313 0.625 3.59375 1.48438 3.23438 L 8.875 0.109375 C 9.03125 0.03125 9.1875 0 9.375 0 M 9.375 2.60938 L 9.375 17.375 C 14.7656 14.7656 16.2188 8.98438 16.25 5.54688 L 9.375 2.60938"/></svg>
