<?xml version="1.0" encoding="UTF-8" standalone="yes"?><svg id="Page_1" xmlns="http://www.w3.org/2000/svg" xmlns:xlink="http://www.w3.org/1999/xlink" version="1.2" baseProfile="tiny" x="0" y="0" width="24" height="24" viewBox="0 0 24.09 24.09"><defs/><path fill="#ffffff" d="M 23.47 0.62 C 23.66 0.81 23.82 1.05 23.93 1.31 C 24.03 1.56 24.09 1.83 24.09 2.11 L 24.09 14.01 C 24.09 14.59 23.85 15.12 23.47 15.5 C 23.09 15.88 22.56 16.12 21.98 16.12 C 21.7 16.12 21.42 16.06 21.17 15.96 C 20.39 15.63 19.86 14.86 19.86 14.01 L 19.86 7.14 C 19.86 7.14 3.58 23.43 3.58 23.43 C 3.16 23.85 2.61 24.08 2.07 24.09 C 1.53 24.1 1 23.91 0.59 23.5 C 0.18 23.1 -0.01 22.56 0 22.02 C 0.01 21.48 0.24 20.93 0.66 20.51 L 16.95 4.22 L 10.09 4.22 C 9.51 4.22 8.98 3.98 8.6 3.6 C 8.22 3.22 7.98 2.69 7.98 2.11 C 7.98 1.83 8.04 1.55 8.14 1.31 C 8.47 0.52 9.24 -6.66134e-16 10.09 -6.66134e-16 L 21.99 -6.66134e-16 C 22.27 -6.66134e-16 22.55 0.06 22.8 0.16 C 23.06 0.27 23.29 0.42 23.49 0.62 L 23.47 0.62 Z"/></svg>
