<?xml version="1.0" encoding="UTF-8" standalone="yes"?><svg xmlns="http://www.w3.org/2000/svg" xmlns:xlink="http://www.w3.org/1999/xlink" version="1.2" baseProfile="tiny" x="0" y="0" width="18" height="15" viewBox="0 0 18.1589 15.75"><defs/><path fill="#eab871" d="M 7.4375 9.25 C 10.5313 9.25 13 11.75 13 14.8125 C 13 15.3438 12.5938 15.75 12.0938 15.75 L 0.9375 15.75 C 0.4375 15.75 0 15.3438 0 14.8125 C 0 11.75 2.5 9.25 5.59375 9.25 L 7.4375 9.25 M 16.8125 3.0625 C 17.0625 2.71875 17.5313 2.65625 17.8438 2.90625 C 18.1875 3.125 18.25 3.59375 18.0313 3.9375 L 14.8125 8.34375 C 14.6875 8.53125 14.4688 8.625 14.25 8.65625 C 14.0313 8.65625 13.8125 8.59375 13.6875 8.40625 L 12.2188 6.90625 C 11.9375 6.625 11.9375 6.15625 12.25 5.875 C 12.5313 5.5625 13 5.59375 13.3125 5.875 L 14.125 6.75 L 16.8125 3.0625 M 6.5 7.5 C 4.4375 7.5 2.75 5.8125 2.75 3.75 C 2.75 1.6875 4.4375 0 6.5 0 C 8.59375 0 10.25 1.6875 10.25 3.75 C 10.25 5.8125 8.59375 7.5 6.5 7.5"/></svg>
